<?xml version="1.0" encoding="utf-8"?>
<!-- Generator: Adobe Illustrator 15.0.0, SVG Export Plug-In . SVG Version: 6.00 Build 0)  -->
<!DOCTYPE svg PUBLIC "-//W3C//DTD SVG 1.1//EN" "http://www.w3.org/Graphics/SVG/1.1/DTD/svg11.dtd">
<svg version="1.1" id="Layer_1" xmlns="http://www.w3.org/2000/svg" xmlns:xlink="http://www.w3.org/1999/xlink" x="0px" y="0px"
	 width="475.17px" height="389.703px" viewBox="0 0 475.17 389.703" enable-background="new 0 0 475.17 389.703"
	 xml:space="preserve">
<rect x="0" display="none" fill="#FDD523" width="475.17" height="389.703"/>
<path fill="#2E0E0A" d="M151.312,0.083c0,0-36.686,44.756,24.212,58.696c60.896,13.94,48.058-25.679,112.99-24.212
	c64.932,1.467,111.891,60.164,121.795,95.381c0,0,64.859,25.312,64.859,81.073c0,55.762-82.471,151.876-90.174,152.243
	l-1.467,23.845h-21.645c0,0-6.237-127.298-25.681-130.6c-19.442-3.303-6.967,49.523-208.371,12.84c0,0-6.232,0.367,0,117.76h-12.108
	v-25.68c0,0-45.084,8.521-78.331-51.614c-0.552-0.996-1.1-2.012-1.644-3.046c-33.383-63.465,0-74.678,0-74.678
	S-66.708,112.567,75.279,9.086l-4.011,16.846C71.268,25.932,119.853-1.701,151.312,0.083z"/>
<path fill="#2E0E0A" d="M275.742,315.444c-1.868,2.298-27.146,5.458-37.201,5.745c-10.054,0.287-18.958-1.438-37.772-6.463
	c-18.815-5.025-76.122,3.591-76.122,3.591v15.654c4.165,0,6.607,4.309,6.607,4.309c-0.144,16.517,5.458,32.171,5.458,32.171
	c10.653,21.703,41.077,19.16,41.077,19.16c19.82-1.521,28.294-4.219,41.221-19.156c12.928-14.938,9.191-34.039,21.008-33.179
	c11.815,0.86,7,14.363,20.932,33.608c13.932,19.246,46.393,23.123,67.937,14.076c21.544-9.049,19.819-46.681,19.819-46.681
	c1.438-3.59,6.75-5.026,6.75-5.026v-14.938C330.177,311.708,277.61,313.146,275.742,315.444z M212.98,367.41
	c0,0-22.444,28.635-58.303,11.866c-0.002,0-21.93-7.481-9.805-52.368c0,0,33.021-19.349,72.234,1.547
	C217.107,328.455,229.232,339.031,212.98,367.41z M324.98,379.371c-35.859,16.77-58.304-11.867-58.304-11.867
	c-16.253-28.377-4.128-38.953-4.128-38.953c39.213-20.896,72.233-1.549,72.233-1.549
	C346.907,371.891,324.979,379.373,324.98,379.371z"/>
</svg>
