<?xml version="1.0" encoding="utf-8"?>
<!-- Generator: Adobe Illustrator 15.0.0, SVG Export Plug-In . SVG Version: 6.00 Build 0)  -->
<!DOCTYPE svg PUBLIC "-//W3C//DTD SVG 1.1//EN" "http://www.w3.org/Graphics/SVG/1.1/DTD/svg11.dtd">
<svg version="1.1" id="Layer_1" xmlns="http://www.w3.org/2000/svg" xmlns:xlink="http://www.w3.org/1999/xlink" x="0px" y="0px"
	 width="126.666px" height="126.666px" viewBox="0 0 126.666 126.666" enable-background="new 0 0 126.666 126.666"
	 xml:space="preserve">
<g id="Layer_4">
	<g>
		<g>
			<g>
				<g>
					<g>
						<circle fill="#EBBF1D" cx="212.834" cy="60.24" r="63.333"/>
					</g>
				</g>
			</g>
		</g>
		<g>
			<path fill="#515352" d="M221.149,97.688c-2.031-5.91-3.183-7.448-7.041-7.448c-3.81,0-5.131,1.952-7.037,7.448
				c-6.502,0.629-11.064,2.107-11.064,3.828c0,2.295,8.104,4.154,18.102,4.154s18.104-1.859,18.104-4.154
				C232.212,99.796,227.649,98.319,221.149,97.688z"/>
		</g>
		<g>
			<g>
				<path fill="#3E4141" d="M259.921,86.931c0,3.025-2.451,5.478-5.475,5.478c0,0-22.531,3.174-41.525,3.174
					c-14.541,0-39.25-3.174-39.25-3.174c-3.025,0-5.477-2.451-5.477-5.478V32.853c0-3.023,2.451-5.475,5.477-5.475h80.775
					c3.023,0,5.475,2.451,5.475,5.475V86.931z"/>
			</g>
		</g>
		<g>
			<rect x="171.894" y="31.332" fill="#76B8CC" width="84.135" height="56.903"/>
		</g>
		<g>
			<g>
				<path fill="#3E5861" d="M241.877,77.257c0,1.604-1.312,2.914-2.914,2.914h-49.706c-1.604,0-2.914-1.312-2.914-2.914v-34.58
					c0-1.603,1.312-2.914,2.914-2.914h49.706c1.603,0,2.914,1.312,2.914,2.914V77.257L241.877,77.257z"/>
			</g>
			<rect x="188.21" y="47.228" fill="#FFFFFF" width="51.814" height="30.503"/>
			<ellipse fill="#FFFFFF" cx="190.699" cy="43.255" rx="1.042" ry="1.01"/>
			<ellipse fill="#FFFFFF" cx="193.985" cy="43.255" rx="1.043" ry="1.01"/>
			<ellipse fill="#FFFFFF" cx="197.345" cy="43.255" rx="1.043" ry="1.01"/>
			<rect x="192.231" y="52.036" fill="#D0D6E7" width="43.756" height="3.582"/>
			<rect x="192.231" y="57.541" fill="#D0D6E7" width="43.756" height="3.584"/>
			<rect x="192.231" y="63.135" fill="#D0D6E7" width="43.756" height="3.583"/>
			<rect x="192.231" y="68.554" fill="#D0D6E7" width="43.756" height="3.584"/>
		</g>
	</g>
	<g display="none">
		<circle display="inline" fill="#FEF2F7" cx="197.033" cy="61.085" r="4.384"/>
	</g>
	<g display="none">
		<circle display="inline" fill="#FEF2F7" cx="219.138" cy="53.625" r="4.383"/>
	</g>
	<g display="none">
		<circle display="inline" fill="#FEF2F7" cx="240.963" cy="43.738" r="4.384"/>
	</g>
	<g display="none">
		<path display="inline" fill="#377280" d="M255.827,35.216c-3.805-0.975-6.607,2.008-10.156,5.777
			c-0.256,0.273-0.518,0.551-0.783,0.83c0.285,0.58,0.459,1.225,0.459,1.914c0,2.42-1.965,4.383-4.385,4.383
			c-0.805,0-1.549-0.232-2.197-0.609c-3.787,2.893-8.578,5.291-15.248,5.9c-0.004,0-0.012,0.002-0.016,0.002
			c0.002,0.072,0.02,0.139,0.02,0.211c0,2.42-1.963,4.383-4.383,4.383c-1.922,0-3.537-1.244-4.129-2.965
			c-2.494,0.594-4.971,1.234-6.881,1.73l-1.699,0.438c-2.07,0.529-3.936,1.049-5.646,1.635c0.396,0.656,0.635,1.418,0.635,2.24
			c0,2.42-1.963,4.383-4.383,4.383c-1.789,0-3.322-1.074-4.005-2.609c-3.043,2.376-5.747,5.785-8.723,11.139
			c-2.1,3.776-4.326,5.69-6.621,5.69c-0.047,0-0.092,0-0.137-0.002c-2.863-0.094-4.896-3.127-5.656-4.465v13.014h84.135v-52.96
			L255.827,35.216z"/>
	</g>
	<g display="none">
		<g display="inline">
			<path fill="#FCF7FB" d="M171.884,73.281v1.954c0.76,1.339,2.844,4.386,5.709,4.479c0.045,0.002,0.09,0.002,0.135,0.002
				c2.295,0,4.521-1.914,6.621-5.688c6.533-11.756,11.758-14.144,22.123-16.789l1.697-0.438c4.355-1.129,11.648-3.018,15.391-3.361
				c11.447-1.045,17.383-7.35,22.152-12.416c3.551-3.771,6.5-6.748,10.305-5.775l-0.006-0.871c-4.307-1.1-7.195,2.051-10.945,6.035
				c-4.668,4.957-10.477,11.127-21.588,12.141c-3.813,0.35-11.147,2.25-15.531,3.387l-1.694,0.438
				c-10.623,2.711-15.979,5.158-22.681,17.218c-1.965,3.534-3.969,5.303-5.948,5.231c-3.056-0.101-5.188-4.531-5.211-4.576
				L171.884,73.281z"/>
		</g>
		<g display="inline">
			<polygon fill="#FCF7FB" points="171.894,75.222 171.894,75.222 171.89,75.214 			"/>
		</g>
	</g>
</g>
<g display="none">
	<path display="inline" fill="#6DC178" d="M47.951,58.071h33.264c0.815,0,1.476-0.66,1.476-1.474v-5.349l-2.754-2.754
		c0,0-1.564-2.017-3.019-1.935c-1.312,0.075-2.836,1.713-3.129,2.037l-1.832-1.832c0,0-1.832-2.363-3.537-2.269
		c-1.705,0.098-3.739,2.472-3.739,2.472l-0.558,0.558l-3.447-3.448c0,0-2.254-2.904-4.35-2.786
		c-2.092,0.118-4.596,3.034-4.596,3.034l-5.256,5.256v7.016C46.475,57.411,47.137,58.071,47.951,58.071z"/>
	<path display="inline" fill="#DCF1F5" d="M56.326,41.292c2.096-0.118,4.35,2.786,4.35,2.786l3.447,3.448l0.558-0.558
		c0,0,2.034-2.374,3.739-2.472c1.705-0.095,3.537,2.269,3.537,2.269l1.832,1.832c0.293-0.324,1.817-1.962,3.129-2.037
		c1.453-0.082,3.019,1.935,3.019,1.935l2.754,2.754V37.374c0-0.815-0.658-1.477-1.476-1.477H47.951
		c-0.814,0-1.477,0.661-1.477,1.477v12.208l5.256-5.256C51.73,44.326,54.234,41.41,56.326,41.292z"/>
</g>
<g display="none">
	<circle display="inline" fill="#FFFFFF" cx="64.517" cy="83.451" r="1.206"/>
	<circle display="inline" fill="#FFFFFF" cx="68.903" cy="83.451" r="0.768"/>
	<circle display="inline" fill="#FFFFFF" cx="72.414" cy="83.451" r="0.768"/>
	<circle display="inline" fill="#FFFFFF" cx="56.618" cy="83.451" r="0.769"/>
	<circle display="inline" fill="#FFFFFF" cx="60.129" cy="83.451" r="0.768"/>
</g>
<g display="none">
	<path display="inline" fill="#B6DCB0" d="M53.51,76.881c0,0.813-0.66,1.474-1.475,1.474H47.73c-0.816,0-1.477-0.658-1.477-1.474
		v-4.306c0-0.816,0.66-1.477,1.477-1.477h4.305c0.814,0,1.475,0.659,1.475,1.477V76.881z"/>
	<path display="inline" fill="#F7A2A4" d="M63.273,76.881c0,0.813-0.662,1.474-1.477,1.474h-4.303c-0.816,0-1.477-0.658-1.477-1.474
		v-4.306c0-0.816,0.66-1.477,1.477-1.477h4.303c0.814,0,1.477,0.659,1.477,1.477V76.881z"/>
	<path display="inline" fill="#68B8CC" d="M73.035,76.881c0,0.813-0.662,1.474-1.476,1.474h-4.305c-0.814,0-1.479-0.658-1.479-1.474
		v-4.306c0-0.816,0.664-1.477,1.479-1.477h4.305c0.812,0,1.476,0.659,1.476,1.477V76.881z"/>
	<path display="inline" fill="#F5E554" d="M82.797,76.881c0,0.813-0.659,1.474-1.476,1.474h-4.305c-0.815,0-1.475-0.658-1.475-1.474
		v-4.306c0-0.816,0.658-1.477,1.475-1.477h4.305c0.814,0,1.476,0.659,1.476,1.477V76.881z"/>
</g>
<path display="none" fill="none" stroke="#68B8CC" stroke-width="0.5" stroke-miterlimit="10" d="M82.688,64.597
	c0,0.812-0.658,1.473-1.476,1.473H47.949c-0.814,0-1.477-0.659-1.477-1.473v-1.675c0-0.815,0.662-1.476,1.477-1.476h33.264
	c0.815,0,1.476,0.66,1.476,1.476V64.597z"/>
<g display="none">
	<circle display="inline" fill="#DCF1F5" cx="79.25" cy="63.296" r="1.096"/>
	<path display="inline" fill="#DCF1F5" d="M81.231,65.291c-0.086,0.085-0.25,0.062-0.364-0.056l-1.232-1.232
		c-0.114-0.113-0.141-0.277-0.055-0.363l0.108-0.109c0.086-0.087,0.25-0.062,0.365,0.056l1.232,1.23
		c0.115,0.115,0.141,0.279,0.053,0.365L81.231,65.291z"/>
</g>
<g display="none">
	<path display="inline" fill="#68B8CC" d="M50.929,91.087c0,0.628-0.51,1.141-1.141,1.141h-3.329c-0.63,0-1.142-0.512-1.142-1.141
		v-3.331c0-0.629,0.512-1.14,1.142-1.14h3.329c0.63,0,1.141,0.511,1.141,1.14V91.087z"/>
	<path display="inline" fill="#F5E554" d="M51.708,42.332c0,0.817-0.667,1.481-1.485,1.481h-4.327c-0.819,0-1.482-0.664-1.482-1.481
		v-4.329c0-0.818,0.663-1.482,1.482-1.482h4.327c0.817,0,1.485,0.664,1.485,1.482V42.332z"/>
	<path display="inline" fill="#B6DCB0" d="M61.518,42.332c0,0.817-0.666,1.481-1.483,1.481h-4.327c-0.819,0-1.484-0.664-1.484-1.481
		v-4.329c0-0.818,0.665-1.482,1.484-1.482h4.327c0.817,0,1.483,0.664,1.483,1.482V42.332z"/>
	<path display="inline" fill="#D4D5E3" d="M71.331,42.332c0,0.817-0.666,1.481-1.482,1.481h-4.326c-0.821,0-1.483-0.664-1.483-1.481
		v-4.329c0-0.818,0.662-1.482,1.483-1.482h4.326c0.816,0,1.482,0.664,1.482,1.482V42.332z"/>
	<path display="inline" fill="#F7A2A4" d="M81.078,42.332c0,0.817-0.665,1.481-1.481,1.481h-4.328c-0.82,0-1.483-0.664-1.483-1.481
		v-4.329c0-0.818,0.663-1.482,1.483-1.482h4.328c0.816,0,1.481,0.664,1.481,1.482V42.332z"/>
</g>
<path display="none" fill="#68B8CC" d="M51.904,104.453c0,0.662-0.537,1.2-1.201,1.2h-3.506c-0.664,0-1.203-0.538-1.203-1.2v-3.509
	c0-0.662,0.539-1.2,1.203-1.2h3.506c0.664,0,1.201,0.538,1.201,1.2V104.453z"/>
<g display="none">
	<path display="inline" fill="#F5E554" d="M71.332,53.815c0,0.817-0.668,1.481-1.485,1.481h-4.326c-0.818,0-1.482-0.664-1.482-1.481
		v-4.329c0-0.818,0.664-1.482,1.482-1.482h4.326c0.817,0,1.485,0.664,1.485,1.482V53.815z"/>
	<path display="inline" fill="#B6DCB0" d="M80.774,53.815c0,0.817-0.664,1.481-1.482,1.481h-4.326c-0.82,0-1.484-0.664-1.484-1.481
		v-4.329c0-0.818,0.664-1.482,1.484-1.482h4.326c0.818,0,1.482,0.664,1.482,1.482V53.815z"/>
	<path display="inline" fill="#D4D5E3" d="M51.707,53.815c0,0.817-0.666,1.481-1.483,1.481h-4.327c-0.821,0-1.482-0.664-1.482-1.481
		v-4.329c0-0.818,0.661-1.482,1.482-1.482h4.327c0.817,0,1.483,0.664,1.483,1.482V53.815z"/>
	<path display="inline" fill="#F7A2A4" d="M61.518,53.815c0,0.817-0.665,1.481-1.483,1.481h-4.327c-0.821,0-1.484-0.664-1.484-1.481
		v-4.329c0-0.818,0.663-1.482,1.484-1.482h4.327c0.818,0,1.483,0.664,1.483,1.482V53.815z"/>
</g>
<g display="none">
	<path display="inline" fill="#F5E554" d="M61.518,65.69c0,0.817-0.668,1.481-1.485,1.481h-4.327c-0.819,0-1.482-0.664-1.482-1.481
		v-4.329c0-0.818,0.663-1.482,1.482-1.482h4.327c0.817,0,1.485,0.664,1.485,1.482V65.69z"/>
	<path display="inline" fill="#B6DCB0" d="M51.708,65.69c0,0.817-0.665,1.481-1.483,1.481h-4.327c-0.819,0-1.484-0.664-1.484-1.481
		v-4.329c0-0.818,0.665-1.482,1.484-1.482h4.327c0.818,0,1.483,0.664,1.483,1.482V65.69z"/>
	<path display="inline" fill="#D4D5E3" d="M80.677,65.69c0,0.817-0.666,1.481-1.482,1.481h-4.326c-0.821,0-1.482-0.664-1.482-1.481
		v-4.329c0-0.818,0.661-1.482,1.482-1.482h4.326c0.816,0,1.482,0.664,1.482,1.482V65.69z"/>
	<path display="inline" fill="#F7A2A4" d="M71.332,65.69c0,0.817-0.665,1.481-1.483,1.481h-4.326c-0.82,0-1.484-0.664-1.484-1.481
		v-4.329c0-0.818,0.664-1.482,1.484-1.482h4.326c0.818,0,1.483,0.664,1.483,1.482V65.69z"/>
</g>
<g display="none">
	<path display="inline" fill="#F5E554" d="M80.774,78.001c0,0.816-0.668,1.48-1.483,1.48h-4.326c-0.819,0-1.483-0.664-1.483-1.48
		v-4.329c0-0.817,0.664-1.481,1.483-1.481h4.326c0.815,0,1.483,0.664,1.483,1.481V78.001z"/>
	<path display="inline" fill="#B6DCB0" d="M71.332,78.001c0,0.816-0.665,1.48-1.483,1.48h-4.326c-0.819,0-1.484-0.664-1.484-1.48
		v-4.329c0-0.817,0.665-1.481,1.484-1.481h4.326c0.818,0,1.483,0.664,1.483,1.481V78.001z"/>
	<path display="inline" fill="#D4D5E3" d="M61.517,78.001c0,0.816-0.666,1.48-1.483,1.48h-4.327c-0.821,0-1.482-0.664-1.482-1.48
		v-4.329c0-0.817,0.661-1.481,1.482-1.481h4.327c0.817,0,1.483,0.664,1.483,1.481V78.001z"/>
	<path display="inline" fill="#F7A2A4" d="M51.708,78.001c0,0.816-0.665,1.48-1.483,1.48h-4.327c-0.821,0-1.484-0.664-1.484-1.48
		v-4.329c0-0.817,0.663-1.481,1.484-1.481h4.327c0.818,0,1.483,0.664,1.483,1.481V78.001z"/>
</g>
<path display="none" fill="none" stroke="#B9B9BA" stroke-width="0.5" stroke-miterlimit="10" d="M69.34,105.226
	c0,0.893-0.543,1.615-1.213,1.615H61.01c-0.668,0-1.211-0.724-1.211-1.615v-1.146c0-0.894,0.543-1.615,1.211-1.615h7.117
	c0.67,0,1.213,0.724,1.213,1.615V105.226z"/>
<circle display="none" fill="#B9B9BA" cx="72.306" cy="23.009" r="0.658"/>
<circle display="none" fill="#B9B9BA" cx="78.61" cy="23.283" r="0.885"/>
<g display="none">
	<g display="inline">
		<g>
			<circle fill="#FDFFFE" cx="63.333" cy="63.334" r="63.333"/>
		</g>
	</g>
</g>
<path fill="#F3F4F5" d="M84.431,101.58c0,5.815-1.918,7.897-7.272,7.897H48.065c-5.356,0-7.273-2.082-7.273-7.897V27.865
	c0-5.815,1.917-7.897,7.273-7.897h29.092c5.354,0,7.273,2.082,7.273,7.897V101.58L84.431,101.58z"/>
<linearGradient id="SVGID_1_" gradientUnits="userSpaceOnUse" x1="70.8486" y1="122.1982" x2="70.8486" y2="50.6768" gradientTransform="matrix(1 0 0 -1 -8.3599 150.7207)">
	<stop  offset="0" style="stop-color:#5978BB"/>
	<stop  offset="0.703" style="stop-color:#4E9DB8"/>
	<stop  offset="1" style="stop-color:#379CCA"/>
</linearGradient>
<rect x="42.791" y="28.523" fill="url(#SVGID_1_)" width="39.396" height="71.521"/>
<path fill="#B9B9BA" d="M68.063,25.768c0,0.333-0.391,0.6-0.871,0.6h-7.718c-0.482,0-0.873-0.267-0.873-0.6l0,0
	c0-0.33,0.391-0.599,0.873-0.599h7.718C67.674,25.169,68.063,25.438,68.063,25.768L68.063,25.768z"/>
<rect x="42.855" y="28.523" opacity="0.5" fill="#202121" enable-background="new    " width="39.378" height="3.585"/>
<circle fill="#FFFFFF" cx="79.394" cy="30.206" r="0.913"/>
<circle fill="#FFFFFF" cx="45.224" cy="30.206" r="0.913"/>
<circle fill="#FFFFFF" cx="83.562" cy="30.206" r="0.913"/>
<path fill="#F5E554" d="M80.774,96.362c0,0.816-0.668,1.48-1.483,1.48h-4.326c-0.819,0-1.483-0.664-1.483-1.48v-4.329
	c0-0.818,0.664-1.482,1.483-1.482h4.326c0.815,0,1.483,0.664,1.483,1.482V96.362z"/>
<path fill="#B6DCB0" d="M71.332,96.362c0,0.816-0.665,1.48-1.483,1.48h-4.326c-0.819,0-1.484-0.664-1.484-1.48v-4.329
	c0-0.818,0.665-1.482,1.484-1.482h4.326c0.818,0,1.483,0.664,1.483,1.482V96.362z"/>
<path fill="#D4D5E3" d="M61.517,96.362c0,0.816-0.666,1.48-1.483,1.48h-4.327c-0.821,0-1.482-0.664-1.482-1.48v-4.329
	c0-0.818,0.661-1.482,1.482-1.482h4.327c0.817,0,1.483,0.664,1.483,1.482V96.362z"/>
<path fill="#F7A2A4" d="M51.708,96.362c0,0.816-0.665,1.48-1.483,1.48h-4.327c-0.821,0-1.484-0.664-1.484-1.48v-4.329
	c0-0.818,0.663-1.482,1.484-1.482h4.327c0.818,0,1.483,0.664,1.483,1.482V96.362z"/>
<circle fill="#B9B9BA" cx="63.196" cy="23.398" r="0.658"/>
<circle fill="#E4E4E4" cx="62.611" cy="104.804" r="3.376"/>
<g>
	<path fill="none" stroke="#B9B9BA" stroke-width="0.3" stroke-miterlimit="10" d="M63.839,105.581c0,0.318-0.26,0.578-0.578,0.578
		h-1.299c-0.318,0-0.578-0.26-0.578-0.578v-1.299c0-0.318,0.26-0.578,0.578-0.578h1.299c0.318,0,0.578,0.26,0.578,0.578V105.581z"/>
</g>
<rect x="42.487" y="88.743" opacity="0.25" fill="#E0F2F6" enable-background="new    " width="40.003" height="11.4"/>
<g id="Layer_3">
	<g>
		<circle fill="#EA575F" cx="-86.332" cy="56.702" r="63.333"/>
	</g>
	<polygon fill="#F7D98B" points="-50.586,20.116 -102.643,48.983 -105.311,51.477 -79.633,75.917 -77.793,73.838 	"/>
	<polygon fill="#636564" points="-50.428,19.817 -73.145,32.444 -62.274,43.317 	"/>
	<g>
		<path fill="#297E7A" d="M-77.327,70.042l-7.742,0.443l-37.896,37.865c2.141,1.52,4.371,2.92,6.697,4.17l36.635-36.604
			L-77.327,70.042z"/>
		<path fill="#297E7A" d="M-131.965,100.594l38.523-38.488l0.344-7.834l-7.539,0.643l-37.805,37.771
			C-136.497,95.497-134.329,98.14-131.965,100.594z"/>
		<path fill="#5DC1C2" d="M-100.637,54.915l1.061-7.125l-5.148,3.033l-36.859,36.826c0.971,1.729,2.02,3.412,3.143,5.037
			L-100.637,54.915z"/>
		<path fill="#5DC1C2" d="M-122.965,108.351l37.896-37.865l-0.1-8.285l-8.273-0.094l-38.523,38.488
			C-129.217,103.452-126.206,106.047-122.965,108.351z"/>
	</g>
	<g display="none">
		<g display="inline">
			<g>
				<polygon fill="#F7D98B" points="-111.293,17.453 -122.819,57.673 -122.907,60.24 -97.995,59.626 -98.112,57.679 				"/>
			</g>
		</g>
		<g display="inline">
			<g>
				<polygon fill="#636564" points="-111.362,17.226 -116.377,34.792 -105.571,34.792 				"/>
			</g>
		</g>
		<g display="inline">
			<g>
				<g>
					<path fill="#287D7A" d="M-99.77,55.558l-3.627,4.07l-0.023,56.146c1.777,0.312,3.576,0.557,5.4,0.721l0.025-56.869
						L-99.77,55.558z"/>
				</g>
			</g>
			<g>
				<g>
					<path fill="#287D7A" d="M-111.749,113.72l0.025-54.096l-3.723-4.066l-3.43,4.068l-0.02,51.303
						C-116.584,111.996-114.2,112.933-111.749,113.72z"/>
				</g>
			</g>
			<g>
				<g>
					<path fill="#5DC1C3" d="M-118.875,59.626l-3.014-4.07l-1.051,4.068l-0.021,49.256c1.326,0.73,2.684,1.41,4.066,2.049
						L-118.875,59.626z"/>
				</g>
			</g>
			<g>
				<g>
					<path fill="#5DC1C2" d="M-103.42,115.774l0.023-56.146l-4.168-4.07l-4.158,4.066l-0.025,54.097
						C-109.047,114.589-106.266,115.272-103.42,115.774z"/>
				</g>
			</g>
		</g>
	</g>
	<g display="none">
		<g display="inline">
			<path fill="#296E6A" d="M-67.618,45.955c-1.098,11.266-4.859,8.617-8.814,8.617c-3.879,0-7.48,2.52-8.812-8.615
				c-1.326-11.086,8.812-30.047,8.812-30.047S-66.536,34.857-67.618,45.955z"/>
		</g>
		<g display="inline">
			<path fill="#365A58" d="M-76.432,54.572c-3.879,0-7.48,2.52-8.812-8.615c-1.326-11.086,8.812-30.047,8.812-30.047V54.572z"/>
		</g>
		<g display="inline">
			<g>
				<g>
					<path fill="#E89F2C" d="M-81.881,54.697l-4.994,56.487l-0.291,3.99c0.162-1.523,0.291-2.945,0.291-3.662l4.994-56.77
						c0-0.92,2.906-1.322,5.816-1.295c0,0,0,48.49-0.002,61.211c3.736-0.984,7.336-2.305,10.77-3.92l-4.953-56.043
						C-70.25,53.089-81.881,52.867-81.881,54.697z"/>
				</g>
			</g>
			<g>
				<g>
					<path fill="#D68A28" d="M-87.167,115.175c-0.049,0.455-0.1,0.918-0.152,1.375c0.018-0.002,0.035-0.002,0.053-0.004
						L-87.167,115.175z"/>
				</g>
			</g>
			<g>
				<g>
					<path fill="#D68A28" d="M-76.067,114.66c0.002-12.722,0.002-61.211,0.002-61.211c-2.91-0.027-5.816,0.375-5.816,1.295
						l-4.994,56.771c0,0.717-0.129,2.139-0.291,3.661l-0.1,1.371C-83.428,116.244-79.682,115.615-76.067,114.66z"/>
				</g>
			</g>
		</g>
		<g display="inline">
			<path fill="#CECCCB" d="M-81.567,54.691l-4.248,45.551l19.85,0.104l-3.973-45.656C-69.938,53.166-81.567,52.957-81.567,54.691z"
				/>
		</g>
		<g display="inline">
			<path fill="#B2B2B3" d="M-81.881,54.671l-3.934,45.57l9.758-0.021c0,0,0.393-46.77-0.008-46.77
				C-78.971,53.451-81.881,53.802-81.881,54.671z"/>
		</g>
		<g display="inline">
			<path fill="#C0BEBE" d="M-82.596,64.19l-2.949,33.099l19.365,0.271l-2.951-33.207C-69.131,63.193-82.594,62.871-82.596,64.19z"/>
		</g>
		<g display="inline">
			<path fill="#ABABAB" d="M-81.881,54.671L-85.6,97.503l9.57-0.121c0,0,0.262-43.932-0.035-43.932
				C-78.971,53.451-81.881,53.802-81.881,54.671z"/>
		</g>
	</g>
</g>
<g id="Layer_2" display="none">
	<g display="inline">
		<g>
			<g>
				<circle fill="#4DBD97" cx="61.518" cy="200.76" r="63.333"/>
			</g>
		</g>
	</g>
	<path display="inline" fill="#F3F4F5" d="M83.284,239.681c0,3.524-1.305,5.506-3.629,5.506H42.383c-2.323,0-3.629-1.98-3.629-5.506
		V161.84c0-3.524,1.306-5.508,3.629-5.508h37.272c2.324,0,3.629,1.981,3.629,5.508V239.681z"/>
	<circle display="inline" fill="#727272" cx="61.606" cy="160.135" r="0.585"/>
	
		<linearGradient id="SVGID_2_" gradientUnits="userSpaceOnUse" x1="40.9736" y1="-78.4141" x2="97.9461" y2="-21.4415" gradientTransform="matrix(1 0 0 -1 -8.3599 150.7207)">
		<stop  offset="0" style="stop-color:#5C6FB4"/>
		<stop  offset="0.7333" style="stop-color:#3F4380"/>
		<stop  offset="1" style="stop-color:#3F4380"/>
	</linearGradient>
	<rect x="40.985" y="163.791" display="inline" fill="url(#SVGID_2_)" width="40.23" height="73.715"/>
	
		<linearGradient id="SVGID_3_" gradientUnits="userSpaceOnUse" x1="69.46" y1="-16.7593" x2="69.46" y2="-86.7856" gradientTransform="matrix(1 0 0 -1 -8.3599 150.7207)">
		<stop  offset="0" style="stop-color:#5978BB"/>
		<stop  offset="0.703" style="stop-color:#4E9DB8"/>
		<stop  offset="1" style="stop-color:#379CCA"/>
	</linearGradient>
	<rect x="40.985" y="167.479" display="inline" fill="url(#SVGID_3_)" width="40.23" height="70.026"/>
	
		<rect x="41.083" y="227.854" display="inline" opacity="0.25" fill="#E0F2F6" enable-background="new    " width="40.003" height="9.651"/>
	<g display="inline">
		<path fill="#6DC178" d="M50.622,178.313c0,0.765-0.619,1.384-1.383,1.384h-4.037c-0.765,0-1.383-0.619-1.383-1.384v-4.037
			c0-0.764,0.618-1.383,1.383-1.383h4.037c0.764,0,1.383,0.619,1.383,1.383V178.313z"/>
		<path fill="#F5E554" d="M59.841,178.313c0,0.765-0.618,1.384-1.383,1.384h-4.036c-0.764,0-1.384-0.619-1.384-1.384v-4.037
			c0-0.764,0.62-1.383,1.384-1.383h4.036c0.765,0,1.383,0.619,1.383,1.383V178.313z"/>
		<path fill="#B6DCB0" d="M69.062,178.313c0,0.765-0.619,1.384-1.385,1.384h-4.034c-0.765,0-1.384-0.619-1.384-1.384v-4.037
			c0-0.764,0.619-1.383,1.384-1.383h4.034c0.766,0,1.385,0.619,1.385,1.383V178.313z"/>
		<path fill="#F7A2A4" d="M78.283,178.313c0,0.765-0.619,1.384-1.384,1.384h-4.035c-0.766,0-1.385-0.619-1.385-1.384v-4.037
			c0-0.764,0.619-1.383,1.385-1.383h4.035c0.765,0,1.384,0.619,1.384,1.383V178.313z"/>
	</g>
	<g display="inline">
		<path fill="#B6DCB0" d="M50.622,190.603c0,0.764-0.619,1.383-1.383,1.383h-4.037c-0.765,0-1.383-0.619-1.383-1.383v-4.037
			c0-0.765,0.618-1.383,1.383-1.383h4.037c0.764,0,1.383,0.618,1.383,1.383V190.603z"/>
		<path fill="#F7A2A4" d="M59.841,190.603c0,0.764-0.618,1.383-1.383,1.383h-4.036c-0.764,0-1.384-0.619-1.384-1.383v-4.037
			c0-0.765,0.62-1.383,1.384-1.383h4.036c0.765,0,1.383,0.618,1.383,1.383V190.603z"/>
		<path fill="#68B8CC" d="M69.062,190.603c0,0.764-0.619,1.383-1.385,1.383h-4.034c-0.765,0-1.384-0.619-1.384-1.383v-4.037
			c0-0.765,0.619-1.383,1.384-1.383h4.034c0.766,0,1.385,0.618,1.385,1.383V190.603z"/>
		<path fill="#F5E554" d="M78.283,190.603c0,0.764-0.619,1.383-1.384,1.383h-4.035c-0.766,0-1.385-0.619-1.385-1.383v-4.037
			c0-0.765,0.619-1.383,1.385-1.383h4.035c0.765,0,1.384,0.618,1.384,1.383V190.603z"/>
	</g>
	<g display="inline">
		<path fill="#68B8CC" d="M50.622,202.887c0,0.763-0.619,1.384-1.383,1.384h-4.037c-0.765,0-1.383-0.621-1.383-1.384v-4.036
			c0-0.765,0.618-1.384,1.383-1.384h4.037c0.764,0,1.383,0.619,1.383,1.384V202.887z"/>
		<path fill="#F5E554" d="M59.841,202.887c0,0.763-0.618,1.384-1.383,1.384h-4.036c-0.764,0-1.384-0.621-1.384-1.384v-4.036
			c0-0.765,0.62-1.384,1.384-1.384h4.036c0.765,0,1.383,0.619,1.383,1.384V202.887z"/>
		<path fill="#6DC178" d="M69.062,202.887c0,0.763-0.619,1.384-1.385,1.384h-4.034c-0.765,0-1.384-0.621-1.384-1.384v-4.036
			c0-0.765,0.619-1.384,1.384-1.384h4.034c0.766,0,1.385,0.619,1.385,1.384V202.887z"/>
		<path fill="#B6DCB0" d="M78.283,202.887c0,0.763-0.619,1.384-1.384,1.384h-4.035c-0.766,0-1.385-0.621-1.385-1.384v-4.036
			c0-0.765,0.619-1.384,1.385-1.384h4.035c0.765,0,1.384,0.619,1.384,1.384V202.887z"/>
	</g>
	<g display="inline">
		<path fill="#F7A2A4" d="M50.622,215.172c0,0.765-0.619,1.384-1.383,1.384h-4.037c-0.765,0-1.383-0.619-1.383-1.384v-4.037
			c0-0.764,0.618-1.383,1.383-1.383h4.037c0.764,0,1.383,0.619,1.383,1.383V215.172z"/>
		<path fill="#B6DCB0" d="M59.841,215.172c0,0.765-0.618,1.384-1.383,1.384h-4.036c-0.764,0-1.384-0.619-1.384-1.384v-4.037
			c0-0.764,0.62-1.383,1.384-1.383h4.036c0.765,0,1.383,0.619,1.383,1.383V215.172z"/>
		<path fill="#F5E554" d="M69.062,215.172c0,0.765-0.619,1.384-1.385,1.384h-4.034c-0.765,0-1.384-0.619-1.384-1.384v-4.037
			c0-0.764,0.619-1.383,1.384-1.383h4.034c0.766,0,1.385,0.619,1.385,1.383V215.172z"/>
		<path fill="#D4D5E3" d="M78.283,215.172c0,0.765-0.619,1.384-1.384,1.384h-4.035c-0.766,0-1.385-0.619-1.385-1.384v-4.037
			c0-0.764,0.619-1.383,1.385-1.383h4.035c0.765,0,1.384,0.619,1.384,1.383V215.172z"/>
	</g>
	<g display="inline">
		<path fill="#6DC178" d="M50.622,234.479c0,0.762-0.619,1.383-1.383,1.383h-4.037c-0.765,0-1.383-0.621-1.383-1.383v-4.037
			c0-0.765,0.618-1.383,1.383-1.383h4.037c0.764,0,1.383,0.618,1.383,1.383V234.479z"/>
		<path fill="#F5E554" d="M59.841,234.479c0,0.762-0.618,1.383-1.383,1.383h-4.036c-0.764,0-1.384-0.621-1.384-1.383v-4.037
			c0-0.765,0.62-1.383,1.384-1.383h4.036c0.765,0,1.383,0.618,1.383,1.383V234.479z"/>
		<path fill="#B6DCB0" d="M69.063,234.479c0,0.762-0.619,1.383-1.385,1.383h-4.035c-0.765,0-1.384-0.621-1.384-1.383v-4.037
			c0-0.765,0.619-1.383,1.384-1.383h4.035c0.766,0,1.385,0.618,1.385,1.383V234.479z"/>
		<path fill="#F7A2A4" d="M78.283,234.479c0,0.762-0.619,1.383-1.384,1.383h-4.035c-0.766,0-1.385-0.621-1.385-1.383v-4.037
			c0-0.765,0.619-1.383,1.385-1.383h4.035c0.765,0,1.384,0.618,1.384,1.383V234.479z"/>
	</g>
	
		<rect x="41.118" y="163.896" display="inline" opacity="0.5" fill="#202121" enable-background="new    " width="39.969" height="3.584"/>
	<circle display="inline" fill="#FFFFFF" cx="74.896" cy="165.576" r="0.914"/>
	<circle display="inline" fill="#FFFFFF" cx="43.095" cy="165.576" r="0.914"/>
	<circle display="inline" fill="#FFFFFF" cx="79.063" cy="165.576" r="0.914"/>
	<circle display="inline" fill="#E4E4E4" cx="61.606" cy="241.412" r="2.047"/>
	<path display="inline" fill="none" stroke="#B9B9BA" stroke-width="0.5" stroke-miterlimit="10" d="M62.259,241.713
		c0,0.193-0.158,0.353-0.352,0.353h-0.604c-0.193,0-0.351-0.158-0.351-0.353v-0.603c0-0.194,0.157-0.354,0.351-0.354h0.604
		c0.193,0,0.352,0.158,0.352,0.354V241.713z"/>
</g>
</svg>
