<?xml version="1.0" encoding="utf-8"?>
<!-- Generator: Adobe Illustrator 15.0.0, SVG Export Plug-In . SVG Version: 6.00 Build 0)  -->
<!DOCTYPE svg PUBLIC "-//W3C//DTD SVG 1.1//EN" "http://www.w3.org/Graphics/SVG/1.1/DTD/svg11.dtd">
<svg version="1.1" id="Layer_1" xmlns="http://www.w3.org/2000/svg" xmlns:xlink="http://www.w3.org/1999/xlink" x="0px" y="0px"
	 width="126.666px" height="126.666px" viewBox="0 0 126.666 126.666" enable-background="new 0 0 126.666 126.666"
	 xml:space="preserve">
<g id="Layer_4">
	<g>
		<g>
			<g>
				<g>
					<circle fill="#EBBF1D" cx="362.499" cy="66.87" r="63.333"/>
				</g>
			</g>
		</g>
	</g>
	<g>
		<path fill="#515352" d="M370.813,104.319c-2.031-5.91-3.182-7.449-7.041-7.449c-3.809,0-5.131,1.953-7.037,7.449
			c-6.502,0.629-11.062,2.106-11.062,3.828c0,2.295,8.104,4.153,18.102,4.153s18.104-1.858,18.104-4.153
			C381.876,106.427,377.313,104.95,370.813,104.319z"/>
	</g>
	<g>
		<g>
			<path fill="#3E4141" d="M409.585,93.562c0,3.025-2.451,5.478-5.475,5.478c0,0-22.531,3.174-41.525,3.174
				c-14.541,0-39.25-3.174-39.25-3.174c-3.025,0-5.477-2.451-5.477-5.478V39.483c0-3.023,2.451-5.475,5.477-5.475h80.775
				c3.023,0,5.475,2.451,5.475,5.475V93.562z"/>
		</g>
	</g>
	<g>
		<rect x="321.558" y="37.962" fill="#76B8CC" width="84.135" height="56.904"/>
	</g>
	<g>
		<g>
			<path fill="#3E5861" d="M391.542,83.888c0,1.603-1.312,2.913-2.914,2.913h-49.705c-1.604,0-2.914-1.312-2.914-2.913V49.307
				c0-1.603,1.311-2.914,2.914-2.914h49.705c1.604,0,2.914,1.312,2.914,2.914V83.888z"/>
		</g>
		<rect x="337.876" y="53.858" fill="#FFFFFF" width="51.812" height="30.502"/>
		<ellipse fill="#FFFFFF" cx="340.364" cy="49.885" rx="1.041" ry="1.01"/>
		<ellipse fill="#FFFFFF" cx="343.651" cy="49.885" rx="1.043" ry="1.01"/>
		<ellipse fill="#FFFFFF" cx="347.011" cy="49.885" rx="1.041" ry="1.01"/>
		<rect x="341.897" y="58.666" fill="#D0D6E7" width="43.754" height="3.582"/>
		<rect x="341.897" y="64.171" fill="#D0D6E7" width="43.754" height="3.584"/>
		<rect x="341.897" y="69.765" fill="#D0D6E7" width="43.754" height="3.584"/>
		<rect x="341.897" y="75.185" fill="#D0D6E7" width="43.754" height="3.582"/>
	</g>
	<g display="none">
		<circle display="inline" fill="#FEF2F7" cx="346.698" cy="67.716" r="4.384"/>
	</g>
	<g display="none">
		<circle display="inline" fill="#FEF2F7" cx="368.802" cy="60.255" r="4.383"/>
	</g>
	<g display="none">
		<circle display="inline" fill="#FEF2F7" cx="390.628" cy="50.368" r="4.384"/>
	</g>
	<g display="none">
		<path display="inline" fill="#377280" d="M405.491,41.847c-3.805-0.975-6.605,2.008-10.154,5.777
			c-0.258,0.273-0.52,0.551-0.783,0.83c0.285,0.58,0.459,1.225,0.459,1.914c0,2.42-1.965,4.383-4.385,4.383
			c-0.807,0-1.551-0.232-2.197-0.609c-3.787,2.893-8.578,5.291-15.248,5.9c-0.004,0-0.012,0.002-0.016,0.002
			c0.002,0.072,0.02,0.139,0.02,0.211c0,2.42-1.963,4.383-4.383,4.383c-1.922,0-3.537-1.244-4.129-2.965
			c-2.494,0.594-4.973,1.234-6.881,1.73l-1.699,0.438c-2.07,0.529-3.938,1.049-5.646,1.635c0.395,0.656,0.635,1.418,0.635,2.24
			c0,2.42-1.963,4.383-4.383,4.383c-1.789,0-3.322-1.074-4.004-2.608c-3.043,2.377-5.748,5.784-8.723,11.139
			c-2.1,3.777-4.326,5.69-6.621,5.69c-0.047,0-0.092,0-0.137-0.002c-2.863-0.094-4.896-3.127-5.656-4.465v13.015h84.135V41.905
			L405.491,41.847z"/>
	</g>
	<g display="none">
		<g display="inline">
			<path fill="#FCF7FB" d="M321.548,79.911v1.955c0.76,1.338,2.844,4.385,5.709,4.479c0.045,0.002,0.09,0.002,0.135,0.002
				c2.295,0,4.521-1.914,6.621-5.688c6.533-11.757,11.758-14.144,22.123-16.789l1.697-0.438c4.355-1.129,11.648-3.018,15.391-3.361
				c11.447-1.045,17.383-7.35,22.152-12.416c3.551-3.771,6.5-6.748,10.305-5.775l-0.006-0.871c-4.307-1.1-7.195,2.051-10.945,6.035
				C390.062,52,384.253,58.17,373.142,59.184c-3.814,0.35-11.148,2.25-15.531,3.387l-1.695,0.438
				c-10.621,2.711-15.979,5.158-22.68,17.217c-1.965,3.535-3.969,5.303-5.949,5.232c-3.055-0.1-5.188-4.531-5.211-4.576
				L321.548,79.911z"/>
		</g>
		<g display="inline">
			<polygon fill="#FCF7FB" points="321.558,81.853 321.558,81.853 321.554,81.845 			"/>
		</g>
	</g>
</g>
<g id="Layer_1_1_">
	<g>
		<g>
			<g>
				<circle fill="#4CBD97" cx="212.998" cy="69.964" r="63.333"/>
			</g>
		</g>
	</g>
	<path fill="#F3F4F5" d="M234.095,108.21c0,5.814-1.919,7.896-7.273,7.896h-29.092c-5.355,0-7.272-2.082-7.272-7.896V34.496
		c0-5.815,1.917-7.897,7.272-7.897h29.092c5.354,0,7.273,2.082,7.273,7.897V108.21L234.095,108.21z"/>
	
		<linearGradient id="SVGID_1_" gradientUnits="userSpaceOnUse" x1="220.5137" y1="115.5674" x2="220.5137" y2="44.0459" gradientTransform="matrix(1 0 0 -1 -8.3599 150.7207)">
		<stop  offset="0" style="stop-color:#5978BB"/>
		<stop  offset="0.703" style="stop-color:#4E9DB8"/>
		<stop  offset="1" style="stop-color:#379CCA"/>
	</linearGradient>
	<rect x="192.456" y="35.154" fill="url(#SVGID_1_)" width="39.396" height="71.521"/>
	<g display="none">
		<path display="inline" fill="#6DC178" d="M197.616,64.702h33.264c0.816,0,1.475-0.66,1.475-1.474v-5.349l-2.754-2.754
			c0,0-1.563-2.017-3.018-1.935c-1.311,0.075-2.836,1.713-3.129,2.037l-1.832-1.832c0,0-1.832-2.363-3.537-2.269
			c-1.705,0.098-3.74,2.472-3.74,2.472l-0.557,0.558l-3.447-3.448c0,0-2.254-2.904-4.35-2.786c-2.092,0.118-4.596,3.034-4.596,3.034
			l-5.256,5.256v7.016C196.14,64.042,196.801,64.702,197.616,64.702z"/>
		<path display="inline" fill="#DCF1F5" d="M205.991,47.922c2.096-0.118,4.35,2.786,4.35,2.786l3.447,3.448l0.557-0.558
			c0,0,2.035-2.374,3.74-2.472c1.705-0.095,3.537,2.269,3.537,2.269l1.832,1.832c0.293-0.324,1.818-1.962,3.129-2.037
			c1.453-0.082,3.018,1.935,3.018,1.935l2.754,2.754V44.004c0-0.815-0.658-1.477-1.475-1.477h-33.264
			c-0.814,0-1.477,0.661-1.477,1.477v12.208l5.256-5.256C201.396,50.957,203.899,48.041,205.991,47.922z"/>
	</g>
	<path fill="#B9B9BA" d="M217.729,32.398c0,0.333-0.392,0.6-0.871,0.6h-7.719c-0.482,0-0.873-0.267-0.873-0.6l0,0
		c0-0.33,0.391-0.599,0.873-0.599h7.719C217.338,31.799,217.729,32.068,217.729,32.398L217.729,32.398z"/>
	<g display="none">
		<circle display="inline" fill="#FFFFFF" cx="214.181" cy="90.082" r="1.206"/>
		<circle display="inline" fill="#FFFFFF" cx="218.569" cy="90.082" r="0.769"/>
		<circle display="inline" fill="#FFFFFF" cx="222.079" cy="90.082" r="0.769"/>
		<circle display="inline" fill="#FFFFFF" cx="206.283" cy="90.082" r="0.769"/>
		<circle display="inline" fill="#FFFFFF" cx="209.793" cy="90.082" r="0.769"/>
	</g>
	<rect x="192.521" y="35.154" opacity="0.5" fill="#202121" enable-background="new    " width="39.377" height="3.585"/>
	<circle fill="#FFFFFF" cx="229.058" cy="36.836" r="0.913"/>
	<circle fill="#FFFFFF" cx="194.888" cy="36.836" r="0.913"/>
	<circle fill="#FFFFFF" cx="233.226" cy="36.836" r="0.913"/>
	<g display="none">
		<path display="inline" fill="#B6DCB0" d="M203.174,83.511c0,0.814-0.659,1.475-1.475,1.475h-4.306
			c-0.815,0-1.477-0.659-1.477-1.475v-4.306c0-0.815,0.66-1.478,1.477-1.478h4.306c0.813,0,1.475,0.66,1.475,1.478V83.511z"/>
		<path display="inline" fill="#F7A2A4" d="M212.938,83.511c0,0.814-0.662,1.475-1.478,1.475h-4.303
			c-0.816,0-1.478-0.659-1.478-1.475v-4.306c0-0.815,0.66-1.478,1.478-1.478h4.303c0.813,0,1.478,0.66,1.478,1.478V83.511z"/>
		<path display="inline" fill="#68B8CC" d="M222.7,83.511c0,0.814-0.662,1.475-1.475,1.475h-4.306c-0.813,0-1.479-0.659-1.479-1.475
			v-4.306c0-0.815,0.664-1.478,1.479-1.478h4.306c0.812,0,1.475,0.66,1.475,1.478V83.511z"/>
		<path display="inline" fill="#F5E554" d="M232.461,83.511c0,0.814-0.66,1.475-1.476,1.475h-4.305
			c-0.815,0-1.475-0.659-1.475-1.475v-4.306c0-0.815,0.658-1.478,1.475-1.478h4.305c0.814,0,1.476,0.66,1.476,1.478V83.511z"/>
	</g>
	<path display="none" fill="none" stroke="#68B8CC" stroke-width="0.5" stroke-miterlimit="10" d="M232.353,71.226
		c0,0.813-0.658,1.474-1.476,1.474h-33.265c-0.813,0-1.477-0.659-1.477-1.474v-1.674c0-0.814,0.662-1.476,1.477-1.476h33.265
		c0.815,0,1.476,0.659,1.476,1.476V71.226L232.353,71.226z"/>
	<g display="none">
		<circle display="inline" fill="#DCF1F5" cx="228.915" cy="69.926" r="1.096"/>
		<path display="inline" fill="#DCF1F5" d="M230.897,71.921c-0.086,0.085-0.25,0.061-0.365-0.056l-1.232-1.232
			c-0.115-0.114-0.141-0.276-0.055-0.362l0.109-0.109c0.086-0.087,0.25-0.061,0.365,0.056l1.231,1.23
			c0.114,0.116,0.141,0.278,0.053,0.364L230.897,71.921z"/>
	</g>
	<g display="none">
		<path display="inline" fill="#68B8CC" d="M200.595,97.718c0,0.629-0.511,1.141-1.142,1.141h-3.329
			c-0.63,0-1.143-0.512-1.143-1.141v-3.33c0-0.63,0.513-1.141,1.143-1.141h3.329c0.63,0,1.142,0.511,1.142,1.141V97.718z"/>
		<path display="inline" fill="#F5E554" d="M201.372,48.962c0,0.817-0.667,1.481-1.484,1.481h-4.328
			c-0.818,0-1.481-0.664-1.481-1.481v-4.329c0-0.818,0.663-1.482,1.481-1.482h4.328c0.816,0,1.484,0.664,1.484,1.482V48.962z"/>
		<path display="inline" fill="#B6DCB0" d="M211.183,48.962c0,0.817-0.666,1.481-1.482,1.481h-4.327
			c-0.819,0-1.483-0.664-1.483-1.481v-4.329c0-0.818,0.664-1.482,1.483-1.482h4.327c0.816,0,1.482,0.664,1.482,1.482V48.962z"/>
		<path display="inline" fill="#D4D5E3" d="M220.996,48.962c0,0.817-0.666,1.481-1.483,1.481h-4.326
			c-0.82,0-1.482-0.664-1.482-1.481v-4.329c0-0.818,0.662-1.482,1.482-1.482h4.326c0.817,0,1.483,0.664,1.483,1.482V48.962z"/>
		<path display="inline" fill="#F7A2A4" d="M230.743,48.962c0,0.817-0.665,1.481-1.482,1.481h-4.326
			c-0.822,0-1.484-0.664-1.484-1.481v-4.329c0-0.818,0.662-1.482,1.484-1.482h4.326c0.817,0,1.482,0.664,1.482,1.482V48.962z"/>
	</g>
	<path display="none" fill="#68B8CC" d="M201.569,111.083c0,0.662-0.537,1.2-1.201,1.2h-3.506c-0.664,0-1.203-0.538-1.203-1.2
		v-3.508c0-0.663,0.539-1.201,1.203-1.201h3.506c0.664,0,1.201,0.538,1.201,1.201V111.083z"/>
	<g display="none">
		<path display="inline" fill="#F5E554" d="M220.997,60.445c0,0.817-0.668,1.481-1.484,1.481h-4.326
			c-0.819,0-1.483-0.664-1.483-1.481v-4.329c0-0.818,0.664-1.482,1.483-1.482h4.326c0.816,0,1.484,0.664,1.484,1.482V60.445z"/>
		<path display="inline" fill="#B6DCB0" d="M230.44,60.445c0,0.817-0.666,1.481-1.483,1.481h-4.326
			c-0.819,0-1.483-0.664-1.483-1.481v-4.329c0-0.818,0.664-1.482,1.483-1.482h4.326c0.817,0,1.483,0.664,1.483,1.482V60.445z"/>
		<path display="inline" fill="#D4D5E3" d="M201.371,60.445c0,0.817-0.666,1.481-1.483,1.481h-4.326
			c-0.821,0-1.482-0.664-1.482-1.481v-4.329c0-0.818,0.661-1.482,1.482-1.482h4.326c0.817,0,1.483,0.664,1.483,1.482V60.445z"/>
		<path display="inline" fill="#F7A2A4" d="M211.183,60.445c0,0.817-0.664,1.481-1.482,1.481h-4.327
			c-0.821,0-1.483-0.664-1.483-1.481v-4.329c0-0.818,0.662-1.482,1.483-1.482h4.327c0.818,0,1.482,0.664,1.482,1.482V60.445z"/>
	</g>
	<g display="none">
		<path display="inline" fill="#F5E554" d="M211.183,72.322c0,0.817-0.668,1.48-1.484,1.48h-4.327c-0.819,0-1.481-0.663-1.481-1.48
			v-4.329c0-0.818,0.662-1.482,1.481-1.482h4.327c0.816,0,1.484,0.664,1.484,1.482V72.322z"/>
		<path display="inline" fill="#B6DCB0" d="M201.372,72.322c0,0.817-0.665,1.48-1.482,1.48h-4.328c-0.818,0-1.483-0.663-1.483-1.48
			v-4.329c0-0.818,0.665-1.482,1.483-1.482h4.328c0.817,0,1.482,0.664,1.482,1.482V72.322z"/>
		<path display="inline" fill="#D4D5E3" d="M230.341,72.322c0,0.817-0.666,1.48-1.482,1.48h-4.326c-0.821,0-1.482-0.663-1.482-1.48
			v-4.329c0-0.818,0.661-1.482,1.482-1.482h4.326c0.816,0,1.482,0.664,1.482,1.482V72.322z"/>
		<path display="inline" fill="#F7A2A4" d="M220.997,72.322c0,0.817-0.665,1.48-1.482,1.48h-4.326c-0.821,0-1.485-0.663-1.485-1.48
			v-4.329c0-0.818,0.664-1.482,1.485-1.482h4.326c0.817,0,1.482,0.664,1.482,1.482V72.322z"/>
	</g>
	<g display="none">
		<path display="inline" fill="#F5E554" d="M230.44,84.631c0,0.817-0.668,1.481-1.484,1.481h-4.326c-0.82,0-1.482-0.664-1.482-1.481
			v-4.329c0-0.818,0.662-1.482,1.482-1.482h4.326c0.816,0,1.484,0.664,1.484,1.482V84.631z"/>
		<path display="inline" fill="#B6DCB0" d="M220.997,84.631c0,0.817-0.665,1.481-1.482,1.481h-4.326
			c-0.82,0-1.485-0.664-1.485-1.481v-4.329c0-0.818,0.665-1.482,1.485-1.482h4.326c0.817,0,1.482,0.664,1.482,1.482V84.631z"/>
		<path display="inline" fill="#D4D5E3" d="M211.183,84.631c0,0.817-0.666,1.481-1.483,1.481h-4.327
			c-0.821,0-1.482-0.664-1.482-1.481v-4.329c0-0.818,0.661-1.482,1.482-1.482h4.327c0.817,0,1.483,0.664,1.483,1.482V84.631z"/>
		<path display="inline" fill="#F7A2A4" d="M201.372,84.631c0,0.817-0.665,1.481-1.482,1.481h-4.328
			c-0.82,0-1.483-0.664-1.483-1.481v-4.329c0-0.818,0.663-1.482,1.483-1.482h4.328c0.817,0,1.482,0.664,1.482,1.482V84.631z"/>
	</g>
	<path fill="#F5E554" d="M230.44,102.992c0,0.817-0.668,1.481-1.484,1.481h-4.326c-0.82,0-1.482-0.664-1.482-1.481v-4.329
		c0-0.818,0.662-1.482,1.482-1.482h4.326c0.816,0,1.484,0.664,1.484,1.482V102.992z"/>
	<path fill="#B6DCB0" d="M220.997,102.992c0,0.817-0.665,1.481-1.482,1.481h-4.326c-0.82,0-1.485-0.664-1.485-1.481v-4.329
		c0-0.818,0.665-1.482,1.485-1.482h4.326c0.817,0,1.482,0.664,1.482,1.482V102.992z"/>
	<path fill="#D4D5E3" d="M211.183,102.992c0,0.817-0.666,1.481-1.483,1.481h-4.327c-0.821,0-1.482-0.664-1.482-1.481v-4.329
		c0-0.818,0.661-1.482,1.482-1.482h4.327c0.817,0,1.483,0.664,1.483,1.482V102.992z"/>
	<path fill="#F7A2A4" d="M201.372,102.992c0,0.817-0.665,1.481-1.482,1.481h-4.328c-0.82,0-1.483-0.664-1.483-1.481v-4.329
		c0-0.818,0.663-1.482,1.483-1.482h4.328c0.817,0,1.482,0.664,1.482,1.482V102.992z"/>
	<path display="none" fill="none" stroke="#B9B9BA" stroke-width="0.5" stroke-miterlimit="10" d="M219.004,111.856
		c0,0.892-0.543,1.615-1.213,1.615h-7.117c-0.668,0-1.211-0.725-1.211-1.615v-1.146c0-0.893,0.543-1.615,1.211-1.615h7.117
		c0.67,0,1.213,0.723,1.213,1.615V111.856z"/>
	<circle fill="#B9B9BA" cx="212.86" cy="30.028" r="0.658"/>
	<circle display="none" fill="#B9B9BA" cx="221.97" cy="29.639" r="0.658"/>
	<circle display="none" fill="#B9B9BA" cx="228.276" cy="29.914" r="0.885"/>
	<circle fill="#E4E4E4" cx="212.276" cy="111.436" r="3.376"/>
	<g>
		<path fill="none" stroke="#B9B9BA" stroke-width="0.3" stroke-miterlimit="10" d="M213.503,112.211
			c0,0.317-0.26,0.578-0.578,0.578h-1.299c-0.318,0-0.578-0.261-0.578-0.578v-1.299c0-0.318,0.26-0.578,0.578-0.578h1.299
			c0.318,0,0.578,0.26,0.578,0.578V112.211z"/>
	</g>
	<rect x="192.151" y="95.374" opacity="0.25" fill="#E0F2F6" enable-background="new    " width="40.002" height="11.4"/>
</g>
<g>
	<circle fill="none" cx="63.333" cy="63.332" r="63.333"/>
</g>
<polygon fill="#F7D98B" points="99.078,26.746 47.021,55.613 44.354,58.107 70.03,82.547 71.871,80.469 "/>
<polygon fill="#636564" points="99.235,26.447 76.521,39.074 87.392,49.947 "/>
<g>
	<path fill="#297E7A" d="M72.338,76.672l-7.741,0.443l-37.897,37.864c2.141,1.521,4.371,2.92,6.697,4.17L70.03,82.546L72.338,76.672
		z"/>
	<path fill="#297E7A" d="M17.699,107.226l38.523-38.488l0.344-7.834l-7.539,0.643l-37.804,37.77
		C13.168,102.127,15.336,104.771,17.699,107.226z"/>
	<path fill="#5DC1C2" d="M49.027,61.545l1.061-7.125l-5.148,3.033L8.08,94.278c0.971,1.73,2.02,3.412,3.143,5.037L49.027,61.545z"/>
	<path fill="#5DC1C2" d="M26.699,114.979l37.896-37.864l-0.1-8.285l-8.273-0.095l-38.523,38.488
		C20.447,110.082,23.459,112.678,26.699,114.979z"/>
</g>
<g display="none">
	<g display="inline">
		<g>
			<polygon fill="#F7D98B" points="38.371,24.083 26.846,64.304 26.758,66.87 51.67,66.257 51.553,64.31 			"/>
		</g>
	</g>
	<g display="inline">
		<g>
			<polygon fill="#636564" points="38.303,23.856 33.287,41.423 44.094,41.423 			"/>
		</g>
	</g>
	<g display="inline">
		<g>
			<g>
				<path fill="#287D7A" d="M49.895,62.188l-3.627,4.07l-0.023,56.146c1.777,0.312,3.576,0.558,5.4,0.722l0.025-56.869
					L49.895,62.188z"/>
			</g>
		</g>
		<g>
			<g>
				<path fill="#287D7A" d="M37.916,120.351l0.025-54.096l-3.723-4.066l-3.43,4.068l-0.02,51.303
					C33.08,118.626,35.465,119.563,37.916,120.351z"/>
			</g>
		</g>
		<g>
			<g>
				<path fill="#5DC1C3" d="M30.789,66.257l-3.014-4.07l-1.051,4.068l-0.021,49.256c1.326,0.73,2.684,1.41,4.066,2.049
					L30.789,66.257z"/>
			</g>
		</g>
		<g>
			<g>
				<path fill="#5DC1C2" d="M46.244,122.405l0.023-56.146l-4.168-4.07l-4.158,4.066l-0.025,54.096
					C40.617,121.22,43.398,121.903,46.244,122.405z"/>
			</g>
		</g>
	</g>
</g>
<g display="none">
	<g display="inline">
		<path fill="#296E6A" d="M82.047,52.585c-1.098,11.266-4.858,8.617-8.813,8.617c-3.879,0-7.48,2.52-8.812-8.615
			c-1.326-11.086,8.812-30.047,8.812-30.047S83.129,41.487,82.047,52.585z"/>
	</g>
	<g display="inline">
		<path fill="#365A58" d="M73.231,61.202c-3.879,0-7.479,2.52-8.812-8.615c-1.326-11.086,8.812-30.047,8.812-30.047V61.202z"/>
	</g>
	<g display="inline">
		<g>
			<g>
				<path fill="#E89F2C" d="M67.783,61.327l-4.994,56.488l-0.291,3.99c0.162-1.523,0.291-2.945,0.291-3.662l4.994-56.771
					c0-0.92,2.905-1.322,5.815-1.295c0,0,0,48.489-0.002,61.211c3.736-0.983,7.336-2.306,10.771-3.92l-4.953-56.043
					C79.414,59.72,67.783,59.497,67.783,61.327z"/>
			</g>
		</g>
		<g>
			<g>
				<path fill="#D68A28" d="M62.498,121.806c-0.049,0.455-0.1,0.918-0.152,1.375c0.018-0.002,0.035-0.002,0.053-0.004
					L62.498,121.806z"/>
			</g>
		</g>
		<g>
			<g>
				<path fill="#D68A28" d="M73.599,121.29c0.002-12.721,0.002-61.211,0.002-61.211c-2.91-0.027-5.816,0.375-5.816,1.295
					l-4.994,56.77c0,0.717-0.129,2.14-0.291,3.662l-0.1,1.371C66.235,122.874,69.981,122.245,73.599,121.29z"/>
			</g>
		</g>
	</g>
	<g display="inline">
		<path fill="#CECCCB" d="M68.099,61.321l-4.248,45.551l19.85,0.105l-3.973-45.657C79.728,59.796,68.099,59.587,68.099,61.321z"/>
	</g>
	<g display="inline">
		<path fill="#B2B2B3" d="M67.783,61.302l-3.935,45.57l9.758-0.021c0,0,0.394-46.77-0.008-46.77
			C70.692,60.081,67.783,60.433,67.783,61.302z"/>
	</g>
	<g display="inline">
		<path fill="#C0BEBE" d="M67.067,70.821l-2.948,33.098l19.364,0.27l-2.95-33.207C80.533,69.823,67.069,69.501,67.067,70.821z"/>
	</g>
	<g display="inline">
		<path fill="#ABABAB" d="M67.783,61.302l-3.72,42.832l9.57-0.121c0,0,0.262-43.932-0.035-43.932
			C70.692,60.081,67.783,60.433,67.783,61.302z"/>
	</g>
</g>
<g id="Layer_2" display="none">
	<g display="inline">
		<g>
			<g>
				<circle fill="#4DBD97" cx="211.183" cy="207.391" r="63.333"/>
			</g>
		</g>
	</g>
	<path display="inline" fill="#F3F4F5" d="M232.949,246.31c0,3.525-1.306,5.506-3.63,5.506h-37.271
		c-2.322,0-3.629-1.979-3.629-5.506v-77.84c0-3.525,1.307-5.508,3.629-5.508h37.271c2.324,0,3.63,1.982,3.63,5.508V246.31z"/>
	<circle display="inline" fill="#727272" cx="211.271" cy="166.766" r="0.585"/>
	
		<linearGradient id="SVGID_2_" gradientUnits="userSpaceOnUse" x1="190.6387" y1="-85.0444" x2="247.6112" y2="-28.072" gradientTransform="matrix(1 0 0 -1 -8.3599 150.7207)">
		<stop  offset="0" style="stop-color:#5C6FB4"/>
		<stop  offset="0.7333" style="stop-color:#3F4380"/>
		<stop  offset="1" style="stop-color:#3F4380"/>
	</linearGradient>
	<rect x="190.649" y="170.421" display="inline" fill="url(#SVGID_2_)" width="40.23" height="73.715"/>
	
		<linearGradient id="SVGID_3_" gradientUnits="userSpaceOnUse" x1="219.124" y1="-23.3882" x2="219.124" y2="-93.4155" gradientTransform="matrix(1 0 0 -1 -8.3599 150.7207)">
		<stop  offset="0" style="stop-color:#5978BB"/>
		<stop  offset="0.703" style="stop-color:#4E9DB8"/>
		<stop  offset="1" style="stop-color:#379CCA"/>
	</linearGradient>
	<rect x="190.649" y="174.108" display="inline" fill="url(#SVGID_3_)" width="40.23" height="70.027"/>
	
		<rect x="190.748" y="234.483" display="inline" opacity="0.25" fill="#E0F2F6" enable-background="new    " width="40.003" height="9.652"/>
	<g display="inline">
		<path fill="#6DC178" d="M200.286,184.944c0,0.765-0.619,1.384-1.383,1.384h-4.037c-0.766,0-1.383-0.619-1.383-1.384v-4.036
			c0-0.765,0.617-1.384,1.383-1.384h4.037c0.764,0,1.383,0.619,1.383,1.384V184.944z"/>
		<path fill="#F5E554" d="M209.506,184.944c0,0.765-0.618,1.384-1.383,1.384h-4.036c-0.764,0-1.384-0.619-1.384-1.384v-4.036
			c0-0.765,0.62-1.384,1.384-1.384h4.036c0.765,0,1.383,0.619,1.383,1.384V184.944z"/>
		<path fill="#B6DCB0" d="M218.728,184.944c0,0.765-0.619,1.384-1.386,1.384h-4.034c-0.765,0-1.384-0.619-1.384-1.384v-4.036
			c0-0.765,0.619-1.384,1.384-1.384h4.034c0.767,0,1.386,0.619,1.386,1.384V184.944z"/>
		<path fill="#F7A2A4" d="M227.948,184.944c0,0.765-0.619,1.384-1.383,1.384h-4.035c-0.766,0-1.385-0.619-1.385-1.384v-4.036
			c0-0.765,0.619-1.384,1.385-1.384h4.035c0.764,0,1.383,0.619,1.383,1.384V184.944z"/>
	</g>
	<g display="inline">
		<path fill="#B6DCB0" d="M200.286,197.231c0,0.765-0.619,1.384-1.383,1.384h-4.037c-0.766,0-1.383-0.619-1.383-1.384v-4.037
			c0-0.764,0.617-1.383,1.383-1.383h4.037c0.764,0,1.383,0.619,1.383,1.383V197.231z"/>
		<path fill="#F7A2A4" d="M209.506,197.231c0,0.765-0.618,1.384-1.383,1.384h-4.036c-0.764,0-1.384-0.619-1.384-1.384v-4.037
			c0-0.764,0.62-1.383,1.384-1.383h4.036c0.765,0,1.383,0.619,1.383,1.383V197.231z"/>
		<path fill="#68B8CC" d="M218.728,197.231c0,0.765-0.619,1.384-1.386,1.384h-4.034c-0.765,0-1.384-0.619-1.384-1.384v-4.037
			c0-0.764,0.619-1.383,1.384-1.383h4.034c0.767,0,1.386,0.619,1.386,1.383V197.231z"/>
		<path fill="#F5E554" d="M227.948,197.231c0,0.765-0.619,1.384-1.383,1.384h-4.035c-0.766,0-1.385-0.619-1.385-1.384v-4.037
			c0-0.764,0.619-1.383,1.385-1.383h4.035c0.764,0,1.383,0.619,1.383,1.383V197.231z"/>
	</g>
	<g display="inline">
		<path fill="#68B8CC" d="M200.286,209.517c0,0.762-0.619,1.383-1.383,1.383h-4.037c-0.766,0-1.383-0.621-1.383-1.383v-4.037
			c0-0.764,0.617-1.383,1.383-1.383h4.037c0.764,0,1.383,0.619,1.383,1.383V209.517z"/>
		<path fill="#F5E554" d="M209.506,209.517c0,0.762-0.618,1.383-1.383,1.383h-4.036c-0.764,0-1.384-0.621-1.384-1.383v-4.037
			c0-0.764,0.62-1.383,1.384-1.383h4.036c0.765,0,1.383,0.619,1.383,1.383V209.517z"/>
		<path fill="#6DC178" d="M218.728,209.517c0,0.762-0.619,1.383-1.386,1.383h-4.034c-0.765,0-1.384-0.621-1.384-1.383v-4.037
			c0-0.764,0.619-1.383,1.384-1.383h4.034c0.767,0,1.386,0.619,1.386,1.383V209.517z"/>
		<path fill="#B6DCB0" d="M227.948,209.517c0,0.762-0.619,1.383-1.383,1.383h-4.035c-0.766,0-1.385-0.621-1.385-1.383v-4.037
			c0-0.764,0.619-1.383,1.385-1.383h4.035c0.764,0,1.383,0.619,1.383,1.383V209.517z"/>
	</g>
	<g display="inline">
		<path fill="#F7A2A4" d="M200.286,221.802c0,0.764-0.619,1.383-1.383,1.383h-4.037c-0.766,0-1.383-0.619-1.383-1.383v-4.037
			c0-0.764,0.617-1.383,1.383-1.383h4.037c0.764,0,1.383,0.619,1.383,1.383V221.802z"/>
		<path fill="#B6DCB0" d="M209.506,221.802c0,0.764-0.618,1.383-1.383,1.383h-4.036c-0.764,0-1.384-0.619-1.384-1.383v-4.037
			c0-0.764,0.62-1.383,1.384-1.383h4.036c0.765,0,1.383,0.619,1.383,1.383V221.802z"/>
		<path fill="#F5E554" d="M218.728,221.802c0,0.764-0.619,1.383-1.386,1.383h-4.034c-0.765,0-1.384-0.619-1.384-1.383v-4.037
			c0-0.764,0.619-1.383,1.384-1.383h4.034c0.767,0,1.386,0.619,1.386,1.383V221.802z"/>
		<path fill="#D4D5E3" d="M227.948,221.802c0,0.764-0.619,1.383-1.383,1.383h-4.035c-0.766,0-1.385-0.619-1.385-1.383v-4.037
			c0-0.764,0.619-1.383,1.385-1.383h4.035c0.764,0,1.383,0.619,1.383,1.383V221.802z"/>
	</g>
	<g display="inline">
		<path fill="#6DC178" d="M200.286,241.108c0,0.763-0.619,1.384-1.383,1.384h-4.037c-0.766,0-1.383-0.621-1.383-1.384v-4.036
			c0-0.765,0.617-1.384,1.383-1.384h4.037c0.764,0,1.383,0.619,1.383,1.384V241.108z"/>
		<path fill="#F5E554" d="M209.506,241.108c0,0.763-0.618,1.384-1.383,1.384h-4.036c-0.764,0-1.384-0.621-1.384-1.384v-4.036
			c0-0.765,0.62-1.384,1.384-1.384h4.036c0.765,0,1.383,0.619,1.383,1.384V241.108z"/>
		<path fill="#B6DCB0" d="M218.729,241.108c0,0.763-0.619,1.384-1.385,1.384h-4.035c-0.766,0-1.385-0.621-1.385-1.384v-4.036
			c0-0.765,0.619-1.384,1.385-1.384h4.035c0.766,0,1.385,0.619,1.385,1.384V241.108z"/>
		<path fill="#F7A2A4" d="M227.948,241.108c0,0.763-0.619,1.384-1.383,1.384h-4.035c-0.766,0-1.385-0.621-1.385-1.384v-4.036
			c0-0.765,0.619-1.384,1.385-1.384h4.035c0.764,0,1.383,0.619,1.383,1.384V241.108z"/>
	</g>
	
		<rect x="190.783" y="170.524" display="inline" opacity="0.5" fill="#202121" enable-background="new    " width="39.969" height="3.584"/>
	<circle display="inline" fill="#FFFFFF" cx="224.56" cy="172.207" r="0.914"/>
	<circle display="inline" fill="#FFFFFF" cx="192.76" cy="172.207" r="0.914"/>
	<circle display="inline" fill="#FFFFFF" cx="228.728" cy="172.207" r="0.914"/>
	<circle display="inline" fill="#E4E4E4" cx="211.271" cy="248.042" r="2.047"/>
	<path display="inline" fill="none" stroke="#B9B9BA" stroke-width="0.5" stroke-miterlimit="10" d="M211.923,248.343
		c0,0.193-0.158,0.352-0.352,0.352h-0.604c-0.192,0-0.351-0.157-0.351-0.352v-0.602c0-0.195,0.156-0.354,0.351-0.354h0.604
		c0.193,0,0.352,0.158,0.352,0.354V248.343z"/>
</g>
</svg>
