<?xml version="1.0" encoding="utf-8"?>
<!-- Generator: Adobe Illustrator 15.0.0, SVG Export Plug-In . SVG Version: 6.00 Build 0)  -->
<!DOCTYPE svg PUBLIC "-//W3C//DTD SVG 1.1//EN" "http://www.w3.org/Graphics/SVG/1.1/DTD/svg11.dtd">
<svg version="1.1" xmlns="http://www.w3.org/2000/svg" xmlns:xlink="http://www.w3.org/1999/xlink" x="0px" y="0px"
	 width="126.666px" height="126.668px" viewBox="0 0 126.666 126.668" enable-background="new 0 0 126.666 126.668"
	 xml:space="preserve">
<g id="Layer_4">
	<g>
		<g>
			<g>
				<g>
					<circle fill="#EBBF1D" cx="63.333" cy="63.334" r="63.333"/>
				</g>
			</g>
		</g>
	</g>
	<g>
		<path fill="#515352" d="M71.648,100.783c-2.031-5.91-3.182-7.449-7.041-7.449c-3.809,0-5.131,1.953-7.037,7.449
			c-6.502,0.629-11.064,2.107-11.064,3.828c0,2.295,8.104,4.154,18.102,4.154s18.104-1.859,18.104-4.154
			C82.711,102.891,78.148,101.414,71.648,100.783z"/>
	</g>
	<g>
		<g>
			<path fill="#3E4141" d="M110.42,90.025c0,3.025-2.451,5.477-5.475,5.477c0,0-22.531,3.174-41.525,3.174
				c-14.541,0-39.25-3.174-39.25-3.174c-3.025,0-5.477-2.451-5.477-5.477V35.947c0-3.023,2.451-5.475,5.477-5.475h80.775
				c3.023,0,5.475,2.451,5.475,5.475V90.025z"/>
		</g>
	</g>
	<g>
		<rect x="22.393" y="34.426" fill="#76B8CC" width="84.135" height="56.904"/>
	</g>
	<g>
		<g>
			<path fill="#3E5861" d="M92.376,80.351c0,1.603-1.312,2.914-2.914,2.914H39.756c-1.603,0-2.914-1.312-2.914-2.914v-34.58
				c0-1.603,1.312-2.914,2.914-2.914h49.706c1.603,0,2.914,1.312,2.914,2.914V80.351z"/>
		</g>
		<rect x="38.709" y="50.322" fill="#FFFFFF" width="51.814" height="30.503"/>
		<ellipse fill="#FFFFFF" cx="41.198" cy="46.349" rx="1.042" ry="1.01"/>
		<ellipse fill="#FFFFFF" cx="44.485" cy="46.349" rx="1.043" ry="1.01"/>
		<ellipse fill="#FFFFFF" cx="47.844" cy="46.349" rx="1.042" ry="1.01"/>
		<rect x="42.731" y="55.13" fill="#D0D6E7" width="43.755" height="3.582"/>
		<rect x="42.731" y="60.635" fill="#D0D6E7" width="43.755" height="3.584"/>
		<rect x="42.731" y="66.229" fill="#D0D6E7" width="43.755" height="3.583"/>
		<rect x="42.731" y="71.648" fill="#D0D6E7" width="43.755" height="3.583"/>
	</g>
	<g display="none">
		<circle display="inline" fill="#FEF2F7" cx="47.532" cy="64.18" r="4.384"/>
	</g>
	<g display="none">
		<circle display="inline" fill="#FEF2F7" cx="69.637" cy="56.719" r="4.383"/>
	</g>
	<g display="none">
		<circle display="inline" fill="#FEF2F7" cx="91.462" cy="46.832" r="4.384"/>
	</g>
	<g display="none">
		<path display="inline" fill="#377280" d="M106.326,38.311c-3.805-0.975-6.607,2.008-10.156,5.777
			c-0.256,0.273-0.518,0.551-0.783,0.83c0.285,0.58,0.459,1.225,0.459,1.914c0,2.42-1.965,4.383-4.385,4.383
			c-0.805,0-1.549-0.232-2.197-0.609c-3.787,2.893-8.578,5.291-15.248,5.9c-0.004,0-0.012,0.002-0.016,0.002
			c0.002,0.072,0.02,0.139,0.02,0.211c0,2.42-1.963,4.383-4.383,4.383c-1.922,0-3.537-1.244-4.129-2.965
			c-2.494,0.594-4.971,1.234-6.881,1.73l-1.699,0.438c-2.07,0.529-3.936,1.049-5.646,1.635c0.395,0.656,0.635,1.418,0.635,2.24
			c0,2.42-1.963,4.383-4.383,4.383c-1.789,0-3.322-1.074-4.004-2.609c-3.043,2.377-5.748,5.785-8.723,11.139
			c-2.1,3.777-4.326,5.691-6.621,5.691c-0.047,0-0.092,0-0.137-0.002c-2.863-0.094-4.896-3.127-5.656-4.465V91.33h84.135V38.369
			L106.326,38.311z"/>
	</g>
	<g display="none">
		<g display="inline">
			<path fill="#FCF7FB" d="M22.383,76.375v1.955c0.76,1.338,2.844,4.385,5.709,4.479c0.045,0.002,0.09,0.002,0.135,0.002
				c2.295,0,4.521-1.914,6.621-5.689c6.533-11.756,11.758-14.143,22.123-16.789l1.697-0.438c4.355-1.129,11.648-3.018,15.391-3.361
				c11.447-1.045,17.383-7.35,22.152-12.416c3.551-3.771,6.5-6.748,10.305-5.775l-0.006-0.871c-4.307-1.1-7.195,2.051-10.945,6.035
				c-4.668,4.957-10.477,11.127-21.588,12.141c-3.814,0.35-11.148,2.25-15.531,3.387l-1.695,0.438
				c-10.623,2.711-15.979,5.158-22.68,17.217c-1.965,3.535-3.969,5.303-5.949,5.232c-3.055-0.1-5.189-4.531-5.211-4.576
				L22.383,76.375z"/>
		</g>
		<g display="inline">
			<polygon fill="#FCF7FB" points="22.393,78.316 22.393,78.316 22.389,78.309 			"/>
		</g>
	</g>
</g>
<g id="Layer_1">
	<g>
		<g>
			<g>
				<circle fill="#4CBD97" cx="-86.168" cy="66.428" r="63.333"/>
			</g>
		</g>
	</g>
	<path fill="#F3F4F5" d="M-65.07,104.674c0,5.815-1.919,7.897-7.273,7.897h-29.092c-5.356,0-7.273-2.082-7.273-7.897V30.959
		c0-5.815,1.917-7.897,7.273-7.897h29.092c5.354,0,7.273,2.082,7.273,7.897V104.674z"/>
	<linearGradient id="SVGID_1_" gradientUnits="userSpaceOnUse" x1="-87.0122" y1="31.6177" x2="-87.0122" y2="103.1382">
		<stop  offset="0" style="stop-color:#5978BB"/>
		<stop  offset="0.703" style="stop-color:#4E9DB8"/>
		<stop  offset="1" style="stop-color:#379CCA"/>
	</linearGradient>
	<rect x="-106.71" y="31.618" fill="url(#SVGID_1_)" width="39.396" height="71.521"/>
	<g display="none">
		<path display="inline" fill="#6DC178" d="M-101.55,61.166h33.264c0.816,0,1.475-0.66,1.475-1.474v-5.349l-2.754-2.754
			c0,0-1.564-2.017-3.018-1.935c-1.311,0.075-2.836,1.713-3.129,2.037l-1.832-1.832c0,0-1.832-2.363-3.537-2.269
			c-1.705,0.098-3.74,2.472-3.74,2.472l-0.557,0.558l-3.447-3.448c0,0-2.254-2.904-4.35-2.786c-2.092,0.118-4.596,3.034-4.596,3.034
			l-5.256,5.256v7.016C-103.026,60.505-102.364,61.166-101.55,61.166z"/>
		<path display="inline" fill="#DCF1F5" d="M-93.175,44.386c2.096-0.118,4.35,2.786,4.35,2.786l3.447,3.448l0.557-0.558
			c0,0,2.035-2.374,3.74-2.472c1.705-0.095,3.537,2.269,3.537,2.269l1.832,1.832c0.293-0.324,1.818-1.962,3.129-2.037
			c1.453-0.082,3.018,1.935,3.018,1.935l2.754,2.754V40.468c0-0.815-0.658-1.477-1.475-1.477h-33.264
			c-0.814,0-1.477,0.661-1.477,1.477v12.208l5.256-5.256C-97.771,47.42-95.267,44.504-93.175,44.386z"/>
	</g>
	<path fill="#B9B9BA" d="M-81.437,28.862c0,0.333-0.391,0.6-0.871,0.6h-7.719c-0.482,0-0.873-0.267-0.873-0.6l0,0
		c0-0.33,0.391-0.599,0.873-0.599h7.719C-81.827,28.263-81.437,28.532-81.437,28.862L-81.437,28.862z"/>
	<g display="none">
		<circle display="inline" fill="#FFFFFF" cx="-84.984" cy="86.545" r="1.206"/>
		<circle display="inline" fill="#FFFFFF" cx="-80.597" cy="86.545" r="0.768"/>
		<circle display="inline" fill="#FFFFFF" cx="-77.087" cy="86.545" r="0.768"/>
		<circle display="inline" fill="#FFFFFF" cx="-92.883" cy="86.545" r="0.769"/>
		<circle display="inline" fill="#FFFFFF" cx="-89.372" cy="86.545" r="0.768"/>
	</g>
	<rect x="-106.646" y="31.618" opacity="0.5" fill="#202121" width="39.378" height="3.585"/>
	<circle fill="#FFFFFF" cx="-70.107" cy="33.3" r="0.913"/>
	<circle fill="#FFFFFF" cx="-104.277" cy="33.3" r="0.913"/>
	<circle fill="#FFFFFF" cx="-65.939" cy="33.3" r="0.913"/>
	<g>
		<defs>
			<rect id="SVGID_2_" x="-106.472" y="31.618" width="42.781" height="71.521"/>
		</defs>
		<clipPath id="SVGID_3_">
			<use xlink:href="#SVGID_2_"  overflow="visible"/>
		</clipPath>
	</g>
	<g display="none">
		<path display="inline" fill="#B6DCB0" d="M-95.991,79.975c0,0.814-0.66,1.474-1.475,1.474h-4.305
			c-0.816,0-1.477-0.659-1.477-1.474v-4.306c0-0.816,0.66-1.477,1.477-1.477h4.305c0.814,0,1.475,0.66,1.475,1.477V79.975z"/>
		<path display="inline" fill="#F7A2A4" d="M-86.228,79.975c0,0.814-0.662,1.474-1.477,1.474h-4.303
			c-0.816,0-1.477-0.659-1.477-1.474v-4.306c0-0.816,0.66-1.477,1.477-1.477h4.303c0.814,0,1.477,0.66,1.477,1.477V79.975z"/>
		<path display="inline" fill="#68B8CC" d="M-76.466,79.975c0,0.814-0.662,1.474-1.475,1.474h-4.305
			c-0.814,0-1.479-0.659-1.479-1.474v-4.306c0-0.816,0.664-1.477,1.479-1.477h4.305c0.812,0,1.475,0.66,1.475,1.477V79.975z"/>
		<path display="inline" fill="#F5E554" d="M-66.704,79.975c0,0.814-0.66,1.474-1.475,1.474h-4.305
			c-0.816,0-1.475-0.659-1.475-1.474v-4.306c0-0.816,0.658-1.477,1.475-1.477h4.305c0.814,0,1.475,0.66,1.475,1.477V79.975z"/>
	</g>
	<path display="none" fill="none" stroke="#68B8CC" stroke-width="0.5" stroke-miterlimit="10" d="M-66.813,67.69
		c0,0.813-0.658,1.473-1.475,1.473h-33.264c-0.814,0-1.477-0.659-1.477-1.473v-1.674c0-0.815,0.662-1.476,1.477-1.476h33.264
		c0.816,0,1.475,0.66,1.475,1.476V67.69z"/>
	<g display="none">
		<circle display="inline" fill="#DCF1F5" cx="-70.251" cy="66.39" r="1.096"/>
		<path display="inline" fill="#DCF1F5" d="M-68.269,68.385c-0.086,0.085-0.25,0.061-0.365-0.056l-1.232-1.232
			c-0.115-0.114-0.141-0.277-0.055-0.363l0.109-0.109c0.086-0.087,0.25-0.061,0.365,0.056l1.232,1.23
			c0.115,0.116,0.141,0.279,0.053,0.365L-68.269,68.385z"/>
	</g>
	<g display="none">
		<path fill="#68B8CC" d="M-98.572,94.182c0,0.628-0.51,1.14-1.141,1.14h-3.329c-0.63,0-1.142-0.511-1.142-1.14v-3.331
			c0-0.629,0.512-1.14,1.142-1.14h3.329c0.63,0,1.141,0.511,1.141,1.14V94.182z"/>
		<path display="inline" fill="#F5E554" d="M-97.793,45.426c0,0.817-0.667,1.481-1.485,1.481h-4.327
			c-0.819,0-1.482-0.664-1.482-1.481v-4.329c0-0.818,0.663-1.482,1.482-1.482h4.327c0.817,0,1.485,0.664,1.485,1.482V45.426z"/>
		<path display="inline" fill="#B6DCB0" d="M-87.983,45.426c0,0.817-0.666,1.481-1.483,1.481h-4.327
			c-0.819,0-1.484-0.664-1.484-1.481v-4.329c0-0.818,0.665-1.482,1.484-1.482h4.327c0.817,0,1.483,0.664,1.483,1.482V45.426z"/>
		<path display="inline" fill="#D4D5E3" d="M-78.17,45.426c0,0.817-0.666,1.481-1.483,1.481h-4.326
			c-0.821,0-1.483-0.664-1.483-1.481v-4.329c0-0.818,0.662-1.482,1.483-1.482h4.326c0.817,0,1.483,0.664,1.483,1.482V45.426z"/>
		<path display="inline" fill="#F7A2A4" d="M-68.423,45.426c0,0.817-0.665,1.481-1.482,1.481h-4.327
			c-0.821,0-1.484-0.664-1.484-1.481v-4.329c0-0.818,0.663-1.482,1.484-1.482h4.327c0.817,0,1.482,0.664,1.482,1.482V45.426z"/>
	</g>
	<path display="none" fill="#68B8CC" d="M-97.597,107.547c0,0.662-0.537,1.2-1.201,1.2h-3.506c-0.664,0-1.203-0.538-1.203-1.2
		v-3.508c0-0.663,0.539-1.201,1.203-1.201h3.506c0.664,0,1.201,0.538,1.201,1.201V107.547z"/>
	<g display="none">
		<path display="inline" fill="#F5E554" d="M-78.169,56.909c0,0.817-0.668,1.481-1.485,1.481h-4.326
			c-0.819,0-1.483-0.664-1.483-1.481V52.58c0-0.818,0.664-1.482,1.483-1.482h4.326c0.817,0,1.485,0.664,1.485,1.482V56.909z"/>
		<path display="inline" fill="#B6DCB0" d="M-68.726,56.909c0,0.817-0.665,1.481-1.483,1.481h-4.326
			c-0.82,0-1.484-0.664-1.484-1.481V52.58c0-0.818,0.664-1.482,1.484-1.482h4.326c0.818,0,1.483,0.664,1.483,1.482V56.909z"/>
		<path display="inline" fill="#D4D5E3" d="M-97.794,56.909c0,0.817-0.666,1.481-1.483,1.481h-4.327
			c-0.821,0-1.482-0.664-1.482-1.481V52.58c0-0.818,0.661-1.482,1.482-1.482h4.327c0.817,0,1.483,0.664,1.483,1.482V56.909z"/>
		<path display="inline" fill="#F7A2A4" d="M-87.983,56.909c0,0.817-0.665,1.481-1.483,1.481h-4.327
			c-0.821,0-1.484-0.664-1.484-1.481V52.58c0-0.818,0.663-1.482,1.484-1.482h4.327c0.818,0,1.483,0.664,1.483,1.482V56.909z"/>
	</g>
	<g display="none">
		<path display="inline" fill="#F5E554" d="M-87.983,68.786c0,0.817-0.668,1.481-1.485,1.481h-4.327
			c-0.819,0-1.482-0.664-1.482-1.481v-4.329c0-0.818,0.663-1.482,1.482-1.482h4.327c0.817,0,1.485,0.664,1.485,1.482V68.786z"/>
		<path display="inline" fill="#B6DCB0" d="M-97.793,68.786c0,0.817-0.665,1.481-1.483,1.481h-4.327
			c-0.819,0-1.484-0.664-1.484-1.481v-4.329c0-0.818,0.665-1.482,1.484-1.482h4.327c0.818,0,1.483,0.664,1.483,1.482V68.786z"/>
		<path display="inline" fill="#D4D5E3" d="M-68.824,68.786c0,0.817-0.666,1.481-1.482,1.481h-4.327
			c-0.821,0-1.482-0.664-1.482-1.481v-4.329c0-0.818,0.661-1.482,1.482-1.482h4.327c0.816,0,1.482,0.664,1.482,1.482V68.786z"/>
		<path display="inline" fill="#F7A2A4" d="M-78.169,68.786c0,0.817-0.665,1.481-1.483,1.481h-4.326
			c-0.821,0-1.485-0.664-1.485-1.481v-4.329c0-0.818,0.664-1.482,1.485-1.482h4.326c0.818,0,1.483,0.664,1.483,1.482V68.786z"/>
	</g>
	<g display="none">
		<path display="inline" fill="#F5E554" d="M-68.726,81.095c0,0.817-0.668,1.481-1.484,1.481h-4.326
			c-0.82,0-1.483-0.664-1.483-1.481v-4.329c0-0.818,0.663-1.482,1.483-1.482h4.326c0.816,0,1.484,0.664,1.484,1.482V81.095z"/>
		<path display="inline" fill="#B6DCB0" d="M-78.169,81.095c0,0.817-0.665,1.481-1.483,1.481h-4.326
			c-0.82,0-1.485-0.664-1.485-1.481v-4.329c0-0.818,0.665-1.482,1.485-1.482h4.326c0.818,0,1.483,0.664,1.483,1.482V81.095z"/>
		<path display="inline" fill="#D4D5E3" d="M-87.984,81.095c0,0.817-0.666,1.481-1.483,1.481h-4.327
			c-0.821,0-1.482-0.664-1.482-1.481v-4.329c0-0.818,0.661-1.482,1.482-1.482h4.327c0.817,0,1.483,0.664,1.483,1.482V81.095z"/>
		<path display="inline" fill="#F7A2A4" d="M-97.793,81.095c0,0.817-0.665,1.481-1.483,1.481h-4.327
			c-0.821,0-1.484-0.664-1.484-1.481v-4.329c0-0.818,0.663-1.482,1.484-1.482h4.327c0.818,0,1.483,0.664,1.483,1.482V81.095z"/>
	</g>
	<path fill="#F5E554" d="M-68.726,99.456c0,0.817-0.668,1.481-1.484,1.481h-4.326c-0.82,0-1.483-0.664-1.483-1.481v-4.329
		c0-0.818,0.663-1.482,1.483-1.482h4.326c0.816,0,1.484,0.664,1.484,1.482V99.456z"/>
	<path fill="#B6DCB0" d="M-78.169,99.456c0,0.817-0.665,1.481-1.483,1.481h-4.326c-0.82,0-1.485-0.664-1.485-1.481v-4.329
		c0-0.818,0.665-1.482,1.485-1.482h4.326c0.818,0,1.483,0.664,1.483,1.482V99.456z"/>
	<path fill="#D4D5E3" d="M-87.984,99.456c0,0.817-0.666,1.481-1.483,1.481h-4.327c-0.821,0-1.482-0.664-1.482-1.481v-4.329
		c0-0.818,0.661-1.482,1.482-1.482h4.327c0.817,0,1.483,0.664,1.483,1.482V99.456z"/>
	<path fill="#F7A2A4" d="M-97.793,99.456c0,0.817-0.665,1.481-1.483,1.481h-4.327c-0.821,0-1.484-0.664-1.484-1.481v-4.329
		c0-0.818,0.663-1.482,1.484-1.482h4.327c0.818,0,1.483,0.664,1.483,1.482V99.456z"/>
	<path display="none" fill="none" stroke="#B9B9BA" stroke-width="0.5" stroke-miterlimit="10" d="M-80.161,108.32
		c0,0.892-0.543,1.615-1.213,1.615h-7.117c-0.668,0-1.211-0.724-1.211-1.615v-1.146c0-0.893,0.543-1.615,1.211-1.615h7.117
		c0.67,0,1.213,0.723,1.213,1.615V108.32z"/>
	<circle fill="#B9B9BA" cx="-86.305" cy="26.492" r="0.658"/>
	<circle display="none" fill="#B9B9BA" cx="-77.196" cy="26.103" r="0.658"/>
	<circle display="none" fill="#B9B9BA" cx="-70.89" cy="26.377" r="0.885"/>
	<circle fill="#E4E4E4" cx="-86.89" cy="107.898" r="3.376"/>
	<g>
		<path fill="none" stroke="#B9B9BA" stroke-width="0.3" stroke-miterlimit="10" d="M-85.662,108.675
			c0,0.318-0.26,0.578-0.578,0.578h-1.299c-0.318,0-0.578-0.26-0.578-0.578v-1.299c0-0.318,0.26-0.578,0.578-0.578h1.299
			c0.318,0,0.578,0.26,0.578,0.578V108.675z"/>
	</g>
	<rect x="-107.014" y="91.837" opacity="0.25" fill="#E0F2F6" width="40.003" height="11.401"/>
</g>
<g id="Layer_3">
	<g>
		<circle fill="#EA575F" cx="-235.833" cy="59.796" r="63.333"/>
	</g>
	<polygon fill="#F7D98B" points="-200.087,23.21 -252.144,52.077 -254.812,54.571 -229.134,79.011 -227.294,76.933 	"/>
	<polygon fill="#636564" points="-199.929,22.911 -222.646,35.538 -211.775,46.411 	"/>
	<g>
		<path fill="#297E7A" d="M-226.828,73.136l-7.742,0.443l-37.896,37.865c2.141,1.52,4.371,2.92,6.697,4.17l36.635-36.604
			L-226.828,73.136z"/>
		<path fill="#297E7A" d="M-281.466,103.688l38.523-38.488l0.344-7.834l-7.539,0.643l-37.805,37.771
			C-285.998,98.591-283.83,101.233-281.466,103.688z"/>
		<path fill="#5DC1C2" d="M-250.138,58.009l1.061-7.125l-5.148,3.033l-36.859,36.826c0.971,1.73,2.02,3.412,3.143,5.037
			L-250.138,58.009z"/>
		<path fill="#5DC1C2" d="M-272.466,111.444l37.896-37.865l-0.1-8.285l-8.273-0.094l-38.523,38.488
			C-278.718,106.546-275.707,109.142-272.466,111.444z"/>
	</g>
	<g display="none">
		<g display="inline">
			<g>
				<polygon fill="#F7D98B" points="-260.794,20.547 -272.32,60.768 -272.408,63.334 -247.496,62.721 -247.613,60.773 				"/>
			</g>
		</g>
		<g display="inline">
			<g>
				<polygon fill="#636564" points="-260.863,20.32 -265.878,37.887 -255.072,37.887 				"/>
			</g>
		</g>
		<g display="inline">
			<g>
				<g>
					<path fill="#287D7A" d="M-249.271,58.652l-3.627,4.07l-0.023,56.146c1.777,0.312,3.576,0.557,5.4,0.721l0.025-56.869
						L-249.271,58.652z"/>
				</g>
			</g>
			<g>
				<g>
					<path fill="#287D7A" d="M-261.25,116.814l0.025-54.096l-3.723-4.066l-3.43,4.068l-0.02,51.303
						C-266.085,115.09-263.701,116.027-261.25,116.814z"/>
				</g>
			</g>
			<g>
				<g>
					<path fill="#5DC1C3" d="M-268.376,62.721l-3.014-4.07l-1.051,4.068l-0.021,49.256c1.326,0.73,2.684,1.41,4.066,2.049
						L-268.376,62.721z"/>
				</g>
			</g>
			<g>
				<g>
					<path fill="#5DC1C2" d="M-252.921,118.869l0.023-56.146l-4.168-4.07l-4.158,4.066l-0.025,54.096
						C-258.548,117.684-255.767,118.367-252.921,118.869z"/>
				</g>
			</g>
		</g>
	</g>
	<g display="none">
		<g display="inline">
			<path fill="#296E6A" d="M-217.119,49.049c-1.098,11.266-4.859,8.617-8.814,8.617c-3.879,0-7.48,2.52-8.812-8.615
				c-1.326-11.086,8.812-30.047,8.812-30.047S-216.037,37.951-217.119,49.049z"/>
		</g>
		<g display="inline">
			<path fill="#365A58" d="M-225.933,57.666c-3.879,0-7.48,2.52-8.812-8.615c-1.326-11.086,8.812-30.047,8.812-30.047V57.666z"/>
		</g>
		<g display="inline">
			<g>
				<g>
					<path fill="#E89F2C" d="M-231.382,57.791l-4.994,56.488l-0.291,3.99c0.162-1.523,0.291-2.945,0.291-3.662l4.994-56.77
						c0-0.92,2.906-1.322,5.816-1.295c0,0,0,48.49-0.002,61.211c3.736-0.984,7.336-2.305,10.77-3.92l-4.953-56.043
						C-219.751,56.184-231.382,55.961-231.382,57.791z"/>
				</g>
			</g>
			<g>
				<g>
					<path fill="#D68A28" d="M-236.667,118.27c-0.049,0.455-0.1,0.918-0.152,1.375c0.018-0.002,0.035-0.002,0.053-0.004
						L-236.667,118.27z"/>
				</g>
			</g>
			<g>
				<g>
					<path fill="#D68A28" d="M-225.568,117.754c0.002-12.721,0.002-61.211,0.002-61.211c-2.91-0.027-5.816,0.375-5.816,1.295
						l-4.994,56.77c0,0.717-0.129,2.139-0.291,3.662l-0.1,1.371C-232.929,119.338-229.183,118.709-225.568,117.754z"/>
				</g>
			</g>
		</g>
		<g display="inline">
			<path fill="#CECCCB" d="M-231.068,57.785l-4.248,45.551l19.85,0.105l-3.973-45.656C-219.439,56.26-231.068,56.051-231.068,57.785
				z"/>
		</g>
		<g display="inline">
			<path fill="#B2B2B3" d="M-231.382,57.766l-3.934,45.57l9.758-0.021c0,0,0.393-46.77-0.008-46.77
				C-228.472,56.545-231.382,56.896-231.382,57.766z"/>
		</g>
		<g display="inline">
			<path fill="#C0BEBE" d="M-232.097,67.285l-2.949,33.098l19.365,0.27l-2.951-33.207
				C-218.632,66.287-232.095,65.965-232.097,67.285z"/>
		</g>
		<g display="inline">
			<path fill="#ABABAB" d="M-231.382,57.766l-3.719,42.832l9.57-0.121c0,0,0.262-43.932-0.035-43.932
				C-228.472,56.545-231.382,56.896-231.382,57.766z"/>
		</g>
	</g>
</g>
<g id="Layer_2" display="none">
	<g display="inline">
		<g>
			<g>
				<circle fill="#4DBD97" cx="-87.983" cy="203.854" r="63.333"/>
			</g>
		</g>
	</g>
	<path display="inline" fill="#F3F4F5" d="M-66.217,242.774c0,3.525-1.305,5.506-3.629,5.506h-37.272
		c-2.323,0-3.629-1.98-3.629-5.506v-77.84c0-3.525,1.306-5.508,3.629-5.508h37.272c2.324,0,3.629,1.982,3.629,5.508V242.774z"/>
	<circle display="inline" fill="#727272" cx="-87.895" cy="163.229" r="0.585"/>
	<linearGradient id="SVGID_4_" gradientUnits="userSpaceOnUse" x1="-116.8867" y1="232.2295" x2="-59.9139" y2="175.2566">
		<stop  offset="0" style="stop-color:#5C6FB4"/>
		<stop  offset="0.7333" style="stop-color:#3F4380"/>
		<stop  offset="1" style="stop-color:#3F4380"/>
	</linearGradient>
	<rect x="-108.516" y="166.885" display="inline" fill="url(#SVGID_4_)" width="40.23" height="73.715"/>
	<linearGradient id="SVGID_5_" gradientUnits="userSpaceOnUse" x1="-88.4009" y1="170.5728" x2="-88.4009" y2="240.6001">
		<stop  offset="0" style="stop-color:#5978BB"/>
		<stop  offset="0.703" style="stop-color:#4E9DB8"/>
		<stop  offset="1" style="stop-color:#379CCA"/>
	</linearGradient>
	<rect x="-108.516" y="170.573" display="inline" fill="url(#SVGID_5_)" width="40.23" height="70.027"/>
	<rect x="-108.417" y="230.948" display="inline" opacity="0.25" fill="#E0F2F6" width="40.003" height="9.652"/>
	<g>
		<path display="inline" fill="#6DC178" d="M-98.879,181.409c0,0.764-0.619,1.383-1.383,1.383h-4.037
			c-0.765,0-1.383-0.619-1.383-1.383v-4.037c0-0.764,0.618-1.383,1.383-1.383h4.037c0.764,0,1.383,0.619,1.383,1.383V181.409z"/>
		<path display="inline" fill="#F5E554" d="M-89.66,181.409c0,0.764-0.618,1.383-1.383,1.383h-4.036
			c-0.764,0-1.384-0.619-1.384-1.383v-4.037c0-0.764,0.62-1.383,1.384-1.383h4.036c0.765,0,1.383,0.619,1.383,1.383V181.409z"/>
		<path display="inline" fill="#B6DCB0" d="M-80.438,181.409c0,0.764-0.619,1.383-1.385,1.383h-4.034
			c-0.765,0-1.384-0.619-1.384-1.383v-4.037c0-0.764,0.619-1.383,1.384-1.383h4.034c0.766,0,1.385,0.619,1.385,1.383V181.409z"/>
		<path display="inline" fill="#F7A2A4" d="M-71.218,181.409c0,0.764-0.619,1.383-1.383,1.383h-4.035
			c-0.766,0-1.385-0.619-1.385-1.383v-4.037c0-0.764,0.619-1.383,1.385-1.383h4.035c0.764,0,1.383,0.619,1.383,1.383V181.409z"/>
	</g>
	<g>
		<path display="inline" fill="#B6DCB0" d="M-98.879,193.696c0,0.764-0.619,1.383-1.383,1.383h-4.037
			c-0.765,0-1.383-0.619-1.383-1.383v-4.037c0-0.764,0.618-1.383,1.383-1.383h4.037c0.764,0,1.383,0.619,1.383,1.383V193.696z"/>
		<path display="inline" fill="#F7A2A4" d="M-89.66,193.696c0,0.764-0.618,1.383-1.383,1.383h-4.036
			c-0.764,0-1.384-0.619-1.384-1.383v-4.037c0-0.764,0.62-1.383,1.384-1.383h4.036c0.765,0,1.383,0.619,1.383,1.383V193.696z"/>
		<path display="inline" fill="#68B8CC" d="M-80.438,193.696c0,0.764-0.619,1.383-1.385,1.383h-4.034
			c-0.765,0-1.384-0.619-1.384-1.383v-4.037c0-0.764,0.619-1.383,1.384-1.383h4.034c0.766,0,1.385,0.619,1.385,1.383V193.696z"/>
		<path display="inline" fill="#F5E554" d="M-71.218,193.696c0,0.764-0.619,1.383-1.383,1.383h-4.035
			c-0.766,0-1.385-0.619-1.385-1.383v-4.037c0-0.764,0.619-1.383,1.385-1.383h4.035c0.764,0,1.383,0.619,1.383,1.383V193.696z"/>
	</g>
	<g>
		<path display="inline" fill="#68B8CC" d="M-98.879,205.981c0,0.762-0.619,1.383-1.383,1.383h-4.037
			c-0.765,0-1.383-0.621-1.383-1.383v-4.037c0-0.764,0.618-1.383,1.383-1.383h4.037c0.764,0,1.383,0.619,1.383,1.383V205.981z"/>
		<path display="inline" fill="#F5E554" d="M-89.66,205.981c0,0.762-0.618,1.383-1.383,1.383h-4.036
			c-0.764,0-1.384-0.621-1.384-1.383v-4.037c0-0.764,0.62-1.383,1.384-1.383h4.036c0.765,0,1.383,0.619,1.383,1.383V205.981z"/>
		<path display="inline" fill="#6DC178" d="M-80.438,205.981c0,0.762-0.619,1.383-1.385,1.383h-4.034
			c-0.765,0-1.384-0.621-1.384-1.383v-4.037c0-0.764,0.619-1.383,1.384-1.383h4.034c0.766,0,1.385,0.619,1.385,1.383V205.981z"/>
		<path display="inline" fill="#B6DCB0" d="M-71.218,205.981c0,0.762-0.619,1.383-1.383,1.383h-4.035
			c-0.766,0-1.385-0.621-1.385-1.383v-4.037c0-0.764,0.619-1.383,1.385-1.383h4.035c0.764,0,1.383,0.619,1.383,1.383V205.981z"/>
	</g>
	<g>
		<path display="inline" fill="#F7A2A4" d="M-98.879,218.266c0,0.764-0.619,1.383-1.383,1.383h-4.037
			c-0.765,0-1.383-0.619-1.383-1.383v-4.037c0-0.764,0.618-1.383,1.383-1.383h4.037c0.764,0,1.383,0.619,1.383,1.383V218.266z"/>
		<path display="inline" fill="#B6DCB0" d="M-89.66,218.266c0,0.764-0.618,1.383-1.383,1.383h-4.036
			c-0.764,0-1.384-0.619-1.384-1.383v-4.037c0-0.764,0.62-1.383,1.384-1.383h4.036c0.765,0,1.383,0.619,1.383,1.383V218.266z"/>
		<path display="inline" fill="#F5E554" d="M-80.438,218.266c0,0.764-0.619,1.383-1.385,1.383h-4.034
			c-0.765,0-1.384-0.619-1.384-1.383v-4.037c0-0.764,0.619-1.383,1.384-1.383h4.034c0.766,0,1.385,0.619,1.385,1.383V218.266z"/>
		<path display="inline" fill="#D4D5E3" d="M-71.218,218.266c0,0.764-0.619,1.383-1.383,1.383h-4.035
			c-0.766,0-1.385-0.619-1.385-1.383v-4.037c0-0.764,0.619-1.383,1.385-1.383h4.035c0.764,0,1.383,0.619,1.383,1.383V218.266z"/>
	</g>
	<g display="inline">
		<path fill="#6DC178" d="M-98.879,237.573c0,0.762-0.619,1.383-1.383,1.383h-4.037c-0.765,0-1.383-0.621-1.383-1.383v-4.037
			c0-0.764,0.618-1.383,1.383-1.383h4.037c0.764,0,1.383,0.619,1.383,1.383V237.573z"/>
		<path fill="#F5E554" d="M-89.66,237.573c0,0.762-0.618,1.383-1.383,1.383h-4.036c-0.764,0-1.384-0.621-1.384-1.383v-4.037
			c0-0.764,0.62-1.383,1.384-1.383h4.036c0.765,0,1.383,0.619,1.383,1.383V237.573z"/>
		<path fill="#B6DCB0" d="M-80.437,237.573c0,0.762-0.619,1.383-1.385,1.383h-4.035c-0.765,0-1.384-0.621-1.384-1.383v-4.037
			c0-0.764,0.619-1.383,1.384-1.383h4.035c0.766,0,1.385,0.619,1.385,1.383V237.573z"/>
		<path fill="#F7A2A4" d="M-71.218,237.573c0,0.762-0.619,1.383-1.383,1.383h-4.035c-0.766,0-1.385-0.621-1.385-1.383v-4.037
			c0-0.764,0.619-1.383,1.385-1.383h4.035c0.764,0,1.383,0.619,1.383,1.383V237.573z"/>
	</g>
	<rect x="-108.383" y="166.989" display="inline" opacity="0.5" fill="#202121" width="39.969" height="3.584"/>
	<circle display="inline" fill="#FFFFFF" cx="-74.605" cy="168.67" r="0.914"/>
	<circle display="inline" fill="#FFFFFF" cx="-106.406" cy="168.67" r="0.914"/>
	<circle display="inline" fill="#FFFFFF" cx="-70.438" cy="168.67" r="0.914"/>
	<circle display="inline" fill="#E4E4E4" cx="-87.895" cy="244.506" r="2.047"/>
	<path display="inline" fill="none" stroke="#B9B9BA" stroke-width="0.5" stroke-miterlimit="10" d="M-87.242,244.807
		c0,0.193-0.158,0.352-0.352,0.352h-0.604c-0.193,0-0.351-0.158-0.351-0.352v-0.602c0-0.195,0.157-0.354,0.351-0.354h0.604
		c0.193,0,0.352,0.158,0.352,0.354V244.807z"/>
</g>
</svg>
